<svg width="14" height="15" viewBox="0 0 14 15" fill="none" xmlns="http://www.w3.org/2000/svg">
<mask id="mask0_727_825" style="mask-type:alpha" maskUnits="userSpaceOnUse" x="0" y="0" width="14" height="15">
<rect x="14" y="14.5" width="14" height="14" transform="rotate(-180 14 14.5)" fill="#D9D9D9"/>
</mask>
<g mask="url(#mask0_727_825)">
<path fill-rule="evenodd" clip-rule="evenodd" d="M10.3762 8.04794C10.5636 8.20724 10.6689 8.42327 10.6689 8.64853C10.6689 8.87378 10.5636 9.08981 10.3762 9.24911L4.71916 14.0546C4.62691 14.1358 4.51657 14.2005 4.39456 14.245C4.27256 14.2895 4.14134 14.313 4.00856 14.3139C3.87578 14.3149 3.7441 14.2934 3.62121 14.2507C3.49831 14.208 3.38666 14.1449 3.29276 14.0652C3.19887 13.9854 3.12462 13.8906 3.07434 13.7862C3.02406 13.6818 2.99875 13.5699 2.99991 13.4571C3.00106 13.3443 3.02865 13.2328 3.08106 13.1292C3.13347 13.0256 3.20965 12.9318 3.30516 12.8535L8.25516 8.64853L3.30516 4.44359C3.123 4.28338 3.02221 4.0688 3.02449 3.84606C3.02676 3.62333 3.13193 3.41027 3.31734 3.25277C3.50275 3.09527 3.75356 3.00593 4.01576 3.004C4.27796 3.00206 4.53056 3.08768 4.71916 3.24242L10.3762 8.04794Z" fill="#333333"/>
</g>
</svg>
