<svg width="1440" height="645" viewBox="0 0 1440 645" fill="none" xmlns="http://www.w3.org/2000/svg">
<mask id="mask0_727_890" style="mask-type:alpha" maskUnits="userSpaceOnUse" x="23" y="-64" width="1448" height="1096">
<path d="M1322.93 459.471C1336.7 441.828 1349.61 424.506 1361.6 407.59C1427.44 314.698 1463.8 237.136 1469.68 177.057C1475.69 115.589 1449.27 74.0176 1391.15 53.4992C1214.71 -8.79713 1091.28 -29.3594 1009.61 -42.9672C972.853 -49.0913 943.819 -53.9288 923.169 -60.5256L922.747 -59.357L923.169 -60.5256C888.815 -71.5013 819.037 -55.0968 741.069 -17.7126C657.162 22.5182 582.25 77.7859 535.537 133.919C471.107 211.343 383.169 280.815 320.744 325.462C248.027 377.468 166.68 426.472 103.142 456.548C62.1243 475.963 35.7749 508.614 26.9449 550.972C11.6558 624.315 50.7407 717.199 128.949 793.375C166.018 829.483 204.349 866.819 243.477 900.116C286.735 936.929 326.349 964.675 364.58 984.939C410.232 1009.14 455.159 1023.6 501.929 1029.15C554.149 1035.35 607.501 1030.4 665.034 1014.02C763.298 986.03 955.897 844.464 1133.4 669.754C1206.01 598.286 1270.6 526.57 1322.93 459.471ZM53.4527 498.251C66.1781 481.937 83.1448 468.612 103.968 458.755C167.635 428.618 249.128 379.528 321.962 327.437C384.514 282.701 472.641 213.075 537.254 135.432C583.732 79.5817 658.324 24.5646 741.907 -15.5102C819.356 -52.6449 888.488 -68.9985 922.324 -58.1884C943.121 -51.5446 972.223 -46.6962 1009.07 -40.5571C1090.67 -26.9622 1213.98 -6.4178 1390.25 55.8161C1447.3 75.9589 1473.24 116.732 1467.35 177.001C1461.52 236.614 1425.32 313.743 1359.75 406.245C1302.25 487.366 1223.45 577.895 1131.86 668.045C954.639 842.481 762.487 983.784 664.584 1011.67C607.351 1027.97 554.292 1032.89 502.373 1026.73C455.872 1021.21 411.189 1006.82 365.77 982.746C280.561 937.582 204.335 863.335 130.619 791.533C52.9599 715.891 14.1103 623.843 29.2315 551.306C33.4064 531.281 41.5848 513.466 53.4527 498.251Z" fill="url(#paint0_linear_727_890)"/>
</mask>
<g mask="url(#mask0_727_890)">
<path d="M1322.53 461.074C1336.25 443.424 1349.12 426.092 1361.07 409.165C1426.69 316.214 1462.88 238.547 1468.63 178.321C1474.52 116.702 1448.04 74.9392 1389.92 54.1928C1213.47 -8.79583 1090.09 -29.7794 1008.45 -43.666C971.702 -49.9156 942.677 -54.8522 922.028 -61.5281L921.608 -60.3575L922.028 -61.5281C887.675 -72.6354 817.976 -56.3924 740.132 -19.1365C656.359 20.9563 581.603 76.1536 535.029 132.302C470.791 209.748 383.046 279.15 320.749 323.734C248.181 375.667 166.983 424.565 103.545 454.535C62.5922 473.883 36.3235 506.544 27.5812 548.992C12.444 622.491 51.6827 715.744 129.986 792.361C167.101 828.677 205.479 866.228 244.645 899.732C287.946 936.774 327.586 964.713 365.832 985.145C411.5 1009.55 456.426 1024.18 503.174 1029.89C555.372 1036.26 608.679 1031.45 666.142 1015.19C764.287 987.418 956.484 846.035 1133.53 671.371C1205.95 599.923 1270.36 528.202 1322.53 461.074ZM53.9696 496.206C66.655 479.884 83.5846 466.573 104.375 456.751C167.942 426.72 249.286 377.736 321.971 325.718C384.395 281.044 472.329 211.488 536.748 133.824C583.087 77.9588 657.524 23.0116 740.973 -16.9255C818.299 -53.9328 887.354 -70.1267 921.189 -59.1869C941.984 -52.4635 971.076 -47.5157 1007.91 -41.2509C1089.48 -27.3775 1212.75 -6.41214 1389.02 56.5134C1446.08 76.88 1472.08 117.841 1466.31 178.258C1460.6 238.017 1424.57 315.25 1359.22 407.811C1301.92 488.984 1223.34 579.528 1131.99 669.654C955.223 844.043 763.472 985.164 665.688 1012.84C608.525 1029.01 555.51 1033.79 503.614 1027.46C457.133 1021.78 412.451 1007.22 367.016 982.95C281.777 937.41 205.457 862.735 131.651 790.519C53.8978 714.44 14.8962 622.025 29.867 549.334C34.0005 529.267 42.1389 511.427 53.9696 496.206Z" fill="url(#paint1_linear_727_890)"/>
</g>
<mask id="mask1_727_890" style="mask-type:alpha" maskUnits="userSpaceOnUse" x="80" y="-36" width="1337" height="1011">
<path d="M1284.14 445.422C1295.02 431.47 1305.31 417.746 1314.96 404.297C1375.81 319.471 1409.59 248.661 1415.33 193.83C1421.15 138.396 1397.82 100.776 1346.01 82.0152C1190 24.112 1073.89 1.82883 997.05 -12.9162C960.98 -19.8382 932.491 -25.3053 911.665 -32.0941C877.998 -43.046 812.053 -28.8553 739.564 4.9401C661.946 41.1273 591.747 92.141 546.966 144.901C487.21 216.056 406.649 280.389 349.588 321.83C282.555 370.513 210.401 415.097 151.625 444.15C114.54 462.491 90.8069 492.832 82.9908 531.891C69.424 599.697 105.412 685.132 176.911 754.855L176.91 754.855C244.301 820.711 313.988 888.811 393.873 931.012C435.95 953.241 477.377 966.561 520.52 971.737C568.647 977.509 617.797 973.092 670.775 958.235C761.784 933.033 940.001 803.75 1104.16 643.845C1173.43 576.374 1234.86 508.592 1284.14 445.422ZM107.908 481.741C119.243 467.208 134.191 455.229 152.438 446.204C211.329 417.094 283.61 372.434 350.749 323.674C407.922 282.152 488.652 217.679 548.568 146.333C593.12 93.843 663.016 43.0622 740.327 7.01779C812.33 -26.5514 877.675 -40.6995 910.86 -29.904C931.804 -23.0765 960.349 -17.5982 996.487 -10.6633C1073.26 4.06973 1189.27 26.3338 1345.13 84.1826C1395.96 102.585 1418.84 139.451 1413.15 193.76C1407.45 248.153 1373.83 318.559 1313.23 403.021C1259.98 477.245 1187.19 559.961 1102.73 642.23C938.832 801.879 761.038 930.916 670.366 956.024C617.664 970.804 568.788 975.198 520.941 969.46C478.047 964.316 436.847 951.066 394.989 928.952C315.355 886.883 245.773 818.886 178.482 753.127L178.482 753.126C107.493 683.899 71.7282 599.239 85.1451 532.186C88.9599 513.122 96.652 496.172 107.908 481.741Z" fill="url(#paint2_linear_727_890)"/>
</mask>
<g mask="url(#mask1_727_890)">
<path d="M1283.76 446.917C1294.61 432.959 1304.86 419.226 1314.48 405.769C1375.13 320.892 1408.75 249.987 1414.38 195.024C1420.08 139.455 1396.7 101.663 1344.89 82.6978C1188.87 24.1745 1072.79 1.48681 995.979 -13.526C959.92 -20.5736 931.438 -26.1399 910.613 -33.009C876.947 -44.0905 811.074 -30.0561 738.699 3.61729C661.202 39.6738 591.149 90.6194 546.499 143.391C486.921 214.564 406.538 278.835 349.595 320.22C282.701 368.838 210.68 413.331 152 442.29C114.975 460.571 91.3165 490.924 83.5811 530.068C70.1545 598.019 106.284 683.794 177.87 753.92L177.869 753.919C245.342 820.155 315.115 888.648 395.029 931.201C437.121 953.615 478.546 967.094 521.67 972.411C569.777 978.342 618.885 974.058 671.799 959.317C762.699 934.315 940.547 805.207 1104.29 645.349C1173.38 577.899 1234.64 510.113 1283.76 446.917ZM108.385 479.854C119.684 465.315 134.599 453.348 152.817 444.352C211.612 415.336 283.758 370.767 350.758 322.073C407.813 280.606 488.365 216.196 548.103 144.832C592.524 92.3302 662.275 41.6172 739.465 5.70292C811.356 -27.745 876.629 -41.7385 909.813 -30.8153C930.756 -23.9071 959.293 -18.3294 995.421 -11.2685C1072.17 3.73198 1188.15 26.4002 1344.02 84.8686C1394.85 103.472 1417.78 140.506 1412.2 194.947C1406.61 249.473 1373.15 319.972 1312.75 404.486C1259.68 478.754 1187.1 561.482 1102.86 643.726C939.376 803.326 761.949 932.191 671.387 957.099C618.748 971.764 569.913 976.025 522.086 970.13C479.211 964.845 438.013 951.437 396.14 929.138C316.478 886.718 246.811 818.329 179.437 752.191L179.437 752.19C108.362 682.564 72.4563 597.566 85.7346 530.37C89.5099 511.265 97.1642 494.291 108.385 479.854Z" fill="url(#paint3_linear_727_890)"/>
</g>
<mask id="mask2_727_890" style="mask-type:alpha" maskUnits="userSpaceOnUse" x="136" y="-8" width="1226" height="925">
<path d="M1245.31 431.53C1253.37 421.196 1261.05 411.015 1268.35 400.989C1324.23 324.229 1355.41 260.167 1361.03 210.586C1366.63 161.186 1346.38 127.519 1300.86 110.521C1164.29 56.6423 1059.52 33.6454 983.017 16.8546C948.3 9.23403 920.88 3.21543 900.155 -3.67582C866.663 -14.7713 806.065 -3.0865 738.056 27.5804C666.714 59.7502 601.229 106.51 558.39 155.871C458.559 273.48 289.427 385.287 200.1 431.747C166.939 449.015 145.818 477.052 139.022 512.829C127.194 575.094 160.089 653.073 224.868 716.335C282.998 773.363 348.887 838.003 423.162 877.085C461.663 897.343 499.589 909.523 539.106 914.319C583.141 919.663 628.088 915.781 676.513 902.451C718.541 891.198 779.748 857.229 853.511 804.219C924.368 753.296 1003.01 687.136 1074.96 617.926C1140.88 554.512 1199.15 490.703 1245.31 431.53ZM162.355 465.166C172.291 452.428 185.22 441.813 200.901 433.649C290.387 387.105 459.835 275.082 559.876 157.228C602.493 108.123 667.692 61.5779 738.746 29.5371C806.297 -0.924204 866.353 -12.5741 899.394 -1.62891C920.21 5.2927 947.674 11.3216 982.443 18.9532C1058.88 35.7313 1163.57 58.71 1300.02 112.538C1344.63 129.195 1364.46 162.154 1358.99 210.501C1353.41 259.675 1322.38 323.358 1266.75 399.781C1217.74 467.1 1150.96 542.01 1073.63 616.404C1001.76 685.54 923.206 751.624 852.435 802.484C778.889 855.339 717.928 889.19 676.144 900.377C627.972 913.637 583.278 917.499 539.503 912.187C500.216 907.42 462.502 895.306 424.203 875.155C350.167 836.198 284.381 771.658 226.339 714.718L226.338 714.717C162.03 651.915 129.346 574.652 141.042 513.082C144.486 494.945 151.695 478.833 162.355 465.166Z" fill="url(#paint4_linear_727_890)"/>
</mask>
<g mask="url(#mask2_727_890)">
<path d="M1244.96 432.917C1253 422.578 1260.65 412.392 1267.93 402.36C1323.62 325.555 1354.65 261.411 1360.17 211.71C1365.67 162.192 1345.38 128.373 1299.85 111.193C1163.27 56.7629 1058.52 33.3928 982.039 16.3295C947.331 8.58521 919.917 2.46892 899.193 -4.50257C865.702 -15.7276 805.167 -4.19031 737.262 26.3591C666.03 58.4056 600.68 105.1 557.965 154.469C458.428 272.103 289.626 383.716 200.448 430.038C167.342 447.255 146.29 475.307 139.567 511.162C127.868 573.562 160.891 651.851 225.75 715.478C283.952 772.835 349.922 837.847 424.223 877.256C462.737 897.683 500.662 910.009 540.162 914.935C584.178 920.424 629.087 916.665 677.455 903.441C719.433 892.282 780.533 858.402 854.144 805.465C924.856 754.612 1003.32 688.505 1075.08 619.318C1140.83 555.925 1198.95 492.115 1244.96 432.917ZM162.793 463.437C172.697 450.693 185.597 440.088 201.252 431.948C290.589 385.542 459.706 273.714 559.452 155.833C601.946 106.721 667.012 60.2412 737.956 28.3232C805.403 -2.0214 865.396 -13.5253 898.437 -2.4523C919.252 4.54989 946.709 10.6766 981.47 18.4321C1057.89 35.4825 1162.55 58.8341 1299.02 113.213C1343.63 130.049 1363.51 163.156 1358.13 211.619C1352.66 260.911 1321.77 324.676 1266.32 401.145C1217.48 468.502 1150.89 543.419 1073.75 617.787C1002.06 686.9 923.691 752.932 853.066 803.722C779.671 856.504 718.816 890.266 677.082 901.361C628.967 914.514 584.311 918.255 540.555 912.799C501.285 907.902 463.572 895.643 425.26 875.323C351.198 836.04 285.331 771.129 227.217 713.861L227.216 713.86C162.829 650.696 130.018 573.125 141.586 511.421C144.993 493.245 152.167 477.11 162.793 463.437Z" fill="url(#paint5_linear_727_890)"/>
</g>
<mask id="mask3_727_890" style="mask-type:alpha" maskUnits="userSpaceOnUse" x="193" y="20" width="1115" height="840">
<path d="M1206.45 417.846C1211.75 411.045 1216.87 404.323 1221.79 397.672C1272.69 328.975 1301.28 271.666 1306.77 227.334C1312.14 183.968 1294.96 154.257 1255.72 139.027C1137.33 88.6294 1038.66 63.9951 966.613 46.0086C935.568 38.2583 908.757 31.564 888.645 24.7443C855.817 13.6679 798.958 23.1923 736.547 50.2224C671.465 78.408 610.693 120.915 569.814 166.843C529.948 213.21 473.743 264.282 407.264 314.553C353.903 354.904 296.064 393.1 248.574 419.346C219.321 435.539 200.807 461.285 195.039 493.798C184.974 550.517 214.779 621.027 272.822 677.811C333.545 737.666 388.977 789.918 452.448 823.156C487.371 841.446 521.797 852.483 557.69 856.899C597.632 861.814 638.376 858.467 682.248 846.666C720.878 836.74 776.876 806.386 844.177 758.887C908.562 713.446 980.162 654.178 1045.79 592.001C1108.37 532.711 1163.47 472.947 1206.45 417.846ZM216.802 448.511C225.324 437.584 236.24 428.359 249.366 421.092C296.939 394.8 354.871 356.544 408.308 316.137C474.908 265.774 531.23 214.592 571.184 168.122C611.85 122.434 672.35 80.1246 737.162 52.0567C799.152 25.2087 855.513 15.7104 887.927 26.6473C908.106 33.4893 934.95 40.1914 966.031 47.9509C1038.02 65.9242 1136.62 90.5393 1254.9 140.894C1293.32 155.801 1310.12 184.846 1304.87 227.233C1299.43 271.187 1270.98 328.147 1220.31 396.532C1175.54 456.951 1114.77 524.051 1044.56 590.573C979.011 652.681 907.496 711.879 843.192 757.262C776.095 804.617 720.328 834.864 681.921 844.732C638.277 856.471 597.768 859.801 558.064 854.917C522.382 850.525 488.152 839.549 453.414 821.358C390.153 788.23 334.821 736.069 274.193 676.309L274.191 676.308C216.579 619.944 186.972 550.091 196.924 494.009C199.985 476.754 206.716 461.442 216.802 448.511Z" fill="url(#paint6_linear_727_890)"/>
</mask>
<g mask="url(#mask3_727_890)">
<path d="M1206.12 419.125C1211.41 412.321 1216.51 405.596 1221.42 398.941C1272.15 330.208 1300.61 272.826 1306.01 228.39C1311.3 184.921 1294.07 155.077 1254.82 139.69C1136.42 88.8029 1037.76 63.8086 965.73 45.5592C934.691 37.6957 907.884 30.9036 887.772 24.0056C854.946 12.8016 798.143 22.1834 735.826 49.1025C670.842 77.1723 610.193 119.615 569.43 165.548C529.681 211.924 473.612 262.969 407.275 313.18C354.028 353.484 296.301 391.612 248.894 417.789C219.692 433.94 201.241 459.702 195.54 492.286C185.591 549.13 215.513 619.922 273.627 677.034C334.426 737.232 389.922 789.792 453.414 823.309C488.35 841.752 522.774 852.921 558.652 857.456C598.576 862.503 639.287 859.267 683.107 847.564C721.692 837.725 777.593 807.455 844.758 760.025C909.011 714.651 980.448 655.433 1045.91 593.281C1108.33 534.014 1163.28 474.25 1206.12 419.125ZM217.2 446.94C225.696 436.008 236.586 426.79 249.689 419.542C297.179 393.32 354.998 355.131 408.321 314.771C474.78 264.468 530.964 213.313 570.802 166.834C611.352 121.142 671.73 78.8962 736.444 50.9436C798.341 24.206 854.645 14.8488 887.059 25.9117C907.237 32.8323 934.077 39.6323 965.152 47.5051C1037.13 65.7411 1135.71 90.7158 1254.01 141.559C1292.43 156.621 1309.28 185.795 1304.12 228.282C1298.76 272.34 1270.44 329.372 1219.94 397.794C1175.31 458.246 1114.72 525.349 1044.68 591.844C979.295 653.928 907.943 713.076 843.769 758.392C776.809 805.678 721.138 835.843 682.776 845.624C639.184 857.266 598.708 860.485 559.021 855.469C523.355 850.96 489.126 839.852 454.376 821.508C391.093 788.102 335.697 735.634 274.995 675.532L274.992 675.53C217.309 618.841 187.586 548.709 197.423 492.503C200.45 475.21 207.146 459.876 217.2 446.94Z" fill="url(#paint7_linear_727_890)"/>
</g>
<mask id="mask4_727_890" style="mask-type:alpha" maskUnits="userSpaceOnUse" x="249" y="47" width="1005" height="755">
<path d="M1167.55 404.432C1170.19 401.048 1172.78 397.686 1175.3 394.345C1221.23 333.712 1247.23 283.153 1252.59 244.072C1257.71 206.735 1243.57 180.981 1210.57 167.529C1108.9 119.78 1014.97 93.2556 946.39 73.8876C919.193 66.2077 895.706 59.5754 877.132 53.1541C844.466 41.928 792.674 49.1094 735.034 72.8556C676.187 97.0999 620.127 135.354 581.231 177.81C506.247 263.674 381.352 356.772 297.036 406.943C271.673 422.071 255.765 445.541 251.032 474.814C242.759 525.978 269.48 589.003 320.767 639.29L320.764 639.287C372.41 690.492 423.584 738.961 481.726 769.229C513.074 785.547 543.998 795.443 576.269 799.481C612.117 803.966 648.658 801.154 687.979 790.881C723.222 782.28 774.02 755.541 834.868 713.556C892.791 673.588 957.356 621.211 1016.67 566.072C1075.91 511.002 1127.83 455.356 1167.55 404.432ZM271.238 431.738C278.33 422.645 287.235 414.845 297.824 408.53C382.27 358.281 507.372 265.024 582.485 179.009C621.175 136.781 676.978 98.7068 735.572 74.5669C792.82 50.9818 844.171 43.8189 876.457 54.9145C895.074 61.3487 918.581 67.9871 945.802 75.6741C1014.33 95.0273 1108.19 121.531 1209.78 169.24C1242.03 182.389 1255.83 207.521 1250.83 243.954C1245.52 282.686 1219.65 332.924 1173.95 393.273C1133.4 446.782 1078.64 506.086 1015.55 564.737C956.303 619.812 891.818 672.124 833.971 712.039C773.314 753.893 722.731 780.536 687.692 789.088C648.576 799.306 612.248 802.105 576.618 797.647C544.542 793.634 513.795 783.793 482.619 767.563C424.673 737.398 373.598 689.018 322.041 637.902L322.039 637.899C271.142 587.993 244.605 525.566 252.785 474.98C255.44 458.541 261.699 443.969 271.238 431.738Z" fill="url(#paint8_linear_727_890)"/>
</mask>
<g mask="url(#mask4_727_890)">
<path d="M1167.25 405.606C1169.89 402.22 1172.46 398.857 1174.98 395.514C1220.76 334.851 1246.64 284.231 1251.92 245.059C1256.97 207.635 1242.79 181.769 1209.79 168.182C1108.09 120 1014.18 93.1246 945.601 73.4999C918.408 65.7182 894.923 58.9981 876.349 52.504C843.684 41.1502 791.94 48.1975 734.385 71.8375C675.624 95.9734 619.677 134.166 580.889 176.622C506.122 262.499 381.492 355.481 297.33 405.538C272.012 420.633 256.161 444.119 251.488 473.459C243.32 524.738 270.146 588.014 321.495 638.592L321.492 638.588C373.203 690.087 424.437 738.841 482.599 769.364C513.957 785.82 544.88 795.835 577.137 799.98C612.969 804.583 649.48 801.872 688.754 791.688C723.958 783.168 774.67 756.506 835.395 714.587C893.202 674.682 957.621 622.353 1016.79 567.24C1075.88 512.195 1127.66 456.551 1167.25 405.606ZM271.597 430.325C278.667 421.228 287.55 413.433 298.12 407.132C382.412 356.997 507.249 263.855 582.144 177.829C620.726 135.6 676.418 97.587 734.926 73.5551C792.09 50.0755 843.393 43.0454 875.678 54.2673C894.295 60.7743 917.799 67.5007 945.016 75.2896C1013.54 94.8992 1107.38 121.754 1209 169.896C1241.25 183.176 1255.09 208.417 1250.17 244.935C1244.93 283.758 1219.18 334.057 1173.62 394.435C1133.21 447.97 1078.6 507.274 1015.66 565.898C956.567 620.947 892.227 673.211 834.496 713.064C773.961 754.852 723.463 781.417 688.465 789.888C649.395 800.019 613.096 802.718 577.481 798.142C545.42 794.022 514.674 784.063 483.487 767.696C425.522 737.276 374.387 688.612 322.766 637.203L322.763 637.2C271.804 587.006 245.164 524.33 253.24 473.63C255.862 457.154 262.088 442.561 271.597 430.325Z" fill="url(#paint9_linear_727_890)"/>
</g>
<mask id="mask5_727_890" style="mask-type:alpha" maskUnits="userSpaceOnUse" x="305" y="75" width="895" height="670">
<path d="M1128.61 391.392C1128.71 391.267 1128.81 391.143 1128.91 391.017C1169.86 338.448 1193.27 294.639 1198.51 260.809C1203.35 229.491 1192.22 207.695 1165.43 196.029C1078.94 149.67 987.136 120.594 920.105 99.3655C899.115 92.7181 880.986 86.9766 865.616 81.563C833.57 70.3439 785.423 75.4198 733.521 95.4869C680.873 115.842 629.526 149.844 592.646 188.774C559.873 225.585 516.905 265.446 464.918 307.271C425.81 338.734 382.283 370.543 345.493 394.544C323.995 408.615 310.686 429.832 307.005 455.904C300.566 501.497 324.21 557.006 368.71 600.768C411.749 643.757 458.192 688.015 511.002 715.302C538.772 729.65 566.196 738.404 594.844 742.064C626.598 746.12 658.935 743.841 693.705 735.097C756.864 720.674 874.983 642.327 987.614 540.144C1043.52 489.426 1092.26 437.997 1128.61 391.392ZM325.669 414.796C331.305 407.569 338.201 401.251 346.279 395.963C383.115 371.932 426.696 340.084 465.85 308.584C517.917 266.695 560.96 226.763 593.782 189.896C630.462 151.178 681.569 117.338 733.98 97.0746C785.53 77.1437 833.28 72.078 864.988 83.1787C880.379 88.6003 898.518 94.3444 919.52 100.996C986.496 122.208 1078.22 151.258 1164.65 197.58C1190.78 208.961 1201.61 230.178 1196.89 260.669C1191.71 294.181 1168.42 337.698 1127.67 390.01C1127.58 390.132 1127.48 390.261 1127.38 390.383C1091.1 436.907 1042.43 488.249 986.598 538.9C874.177 640.893 756.373 719.074 693.46 733.439C658.871 742.138 626.725 744.405 595.168 740.373C566.696 736.737 539.432 728.033 511.818 713.764C459.194 686.573 412.845 642.402 369.884 599.491L369.88 599.487C325.729 556.067 302.255 501.092 308.621 456.018C310.838 440.3 316.633 426.382 325.669 414.796Z" fill="url(#paint10_linear_727_890)"/>
</mask>
<g mask="url(#mask5_727_890)">
<path d="M1128.35 392.46C1128.44 392.335 1128.54 392.212 1128.64 392.086C1169.46 339.494 1192.77 295.635 1197.94 261.729C1202.72 230.339 1191.55 208.45 1164.76 196.673C1078.23 149.929 986.436 120.501 919.41 99.015C898.421 92.2869 880.293 86.4758 864.923 81.0017C832.877 69.6565 784.772 74.6031 732.944 94.5706C680.371 114.825 629.125 148.767 592.346 187.694C559.667 224.508 516.805 264.35 464.935 306.135C425.914 337.567 382.478 369.334 345.76 393.291C324.304 407.337 311.045 428.572 307.417 454.704C301.071 500.403 324.807 556.134 369.362 600.148C412.455 643.383 458.953 687.9 511.781 715.419C539.559 729.889 566.982 738.748 595.618 742.503C627.358 746.665 659.669 744.476 694.399 735.811C757.487 721.537 875.374 643.327 987.729 541.2C1043.5 490.509 1092.11 439.085 1128.35 392.46ZM325.989 413.539C331.606 406.31 338.486 399.995 346.548 394.716C383.312 370.729 426.803 338.923 465.868 307.455C517.819 265.605 560.755 225.692 593.483 188.822C630.063 150.107 681.07 116.327 733.406 96.164C784.882 76.3319 832.591 71.3945 864.298 82.6199C879.69 88.1021 897.827 93.9159 918.828 100.648C985.8 122.117 1077.52 151.52 1163.98 198.226C1190.12 209.716 1200.98 231.023 1196.33 261.583C1191.21 295.172 1168.02 338.738 1127.4 391.072C1127.31 391.194 1127.21 391.323 1127.11 391.445C1090.94 437.989 1042.41 489.326 986.712 539.949C874.565 641.887 756.993 719.931 694.151 734.149C659.602 742.769 627.482 744.946 595.938 740.809C567.479 737.078 540.216 728.269 512.593 713.879C459.951 686.457 413.548 642.028 370.532 598.872L370.528 598.867C326.323 555.197 302.758 500.002 309.032 454.824C311.217 439.069 316.981 425.13 325.989 413.539Z" fill="url(#paint11_linear_727_890)"/>
</g>
<mask id="mask6_727_890" style="mask-type:alpha" maskUnits="userSpaceOnUse" x="362" y="103" width="784" height="584">
<path d="M1089.8 378.683C1121.4 338.173 1139.81 304.192 1144.58 277.564C1149.11 252.252 1140.96 234.416 1120.33 224.547C1047.87 177.619 953.335 144.657 884.307 120.589C873.476 116.813 863.243 113.245 854.093 109.962C822.157 98.573 778.796 101.467 731.999 118.11C684.813 134.891 639.373 163.879 604.049 199.732C580.664 225.359 513.423 294.386 393.934 382.144C376.265 395.179 365.547 414.185 362.942 437.112C358.396 477.101 378.972 525.047 416.635 562.24C451.566 597.468 492.807 637.09 540.268 661.374C590.425 687.04 642.484 692.907 699.422 679.313C727.936 673.357 768.377 653.85 816.354 622.905C862.05 593.431 911.255 555.852 958.645 514.231C1007.58 471.25 1050.46 427.5 1082.63 387.708C1085.09 384.666 1087.48 381.656 1089.8 378.683ZM380.083 397.593C384.222 392.286 389.117 387.528 394.73 383.388C413.844 369.35 452.241 340.47 494.611 304.8C539.088 267.358 576.252 232.36 605.07 200.776C640.199 165.121 685.419 136.275 732.38 119.573C778.86 103.043 821.879 100.153 853.513 111.434C862.667 114.719 872.901 118.286 883.736 122.065C952.712 146.114 1047.18 179.051 1119.51 225.906L1119.58 225.948C1139.6 235.509 1147.52 252.819 1143.11 277.398C1138.12 305.293 1116.82 343.109 1081.52 386.765C1049.41 426.482 1006.6 470.16 957.737 513.076C910.407 554.644 861.272 592.171 815.643 621.602C767.83 652.441 727.571 671.873 699.22 677.795C642.607 691.311 590.863 685.479 541.009 659.969C493.722 635.774 452.573 596.239 417.714 561.082L417.709 561.077C380.346 524.184 359.928 476.707 364.422 437.173C366.145 422.021 371.481 408.621 380.083 397.593Z" fill="url(#paint12_linear_727_890)"/>
</mask>
<g mask="url(#mask6_727_890)">
<path d="M1089.56 379.649C1121.06 339.123 1139.39 305.103 1144.1 278.417C1148.58 253.049 1140.4 235.14 1119.77 225.182C1047.27 177.91 952.731 144.576 883.704 120.236C872.872 116.417 862.64 112.809 853.49 109.49C821.553 97.9744 778.228 100.747 731.494 117.295C684.374 133.982 639.021 162.913 603.792 198.759C580.472 224.387 513.412 293.402 394.175 381.043C376.544 394.06 365.87 413.086 363.311 436.069C358.846 476.153 379.501 524.292 417.212 561.698C452.187 597.128 493.477 636.98 540.954 661.473C591.126 687.358 643.161 693.397 700.034 679.936C728.516 674.048 768.892 654.609 816.776 623.722C862.384 594.304 911.481 556.77 958.758 515.176C1007.58 472.224 1050.34 428.482 1082.41 388.677C1084.87 385.635 1087.25 382.623 1089.56 379.649ZM380.364 396.493C384.489 391.184 389.372 386.428 394.973 382.292C414.047 368.273 452.361 339.429 494.632 303.788C539.006 266.377 576.077 231.393 604.814 199.809C639.849 164.161 684.982 135.371 731.878 118.764C778.294 102.328 821.279 99.5577 852.912 110.964C862.067 114.285 872.301 117.893 883.136 121.714C952.112 146.035 1046.58 179.344 1118.95 226.543L1119.03 226.585C1139.05 236.232 1146.99 253.613 1142.64 278.246C1137.7 306.202 1116.49 344.058 1081.3 387.728C1049.29 427.458 1006.6 471.127 957.849 514.016C910.633 555.556 861.604 593.038 816.063 622.414C768.343 653.195 728.149 672.56 699.829 678.413C643.281 691.798 591.56 685.795 541.691 660.067C494.389 635.664 453.191 595.899 418.288 560.541L418.283 560.536C380.874 523.431 360.376 475.763 364.791 436.134C366.483 420.946 371.789 407.525 380.364 396.493Z" fill="url(#paint13_linear_727_890)"/>
</g>
<mask id="mask7_727_890" style="mask-type:alpha" maskUnits="userSpaceOnUse" x="418" y="130" width="675" height="499">
<path d="M1050.4 367.495C1072.83 338.726 1086.73 313.702 1090.9 294.399C1095.09 275.021 1089.81 261.114 1075.21 253.063C1017.02 202.103 894.775 157.433 842.567 138.356C777.282 114.634 683.887 144.379 615.447 210.687C563.709 265.577 495.357 324.251 454.519 359.306C450.183 363.029 446.114 366.521 442.362 369.754C428.469 381.786 420.341 398.657 418.852 418.538C416.28 452.859 433.795 493.163 464.557 523.719C495.42 555.261 529.499 587.238 569.525 607.449C612.24 629.018 656.597 634.279 705.129 623.531C754.612 614.422 842.804 561.369 929.786 488.376C971.609 453.279 1008.52 417.352 1036.53 384.48C1041.46 378.691 1046.09 373.021 1050.4 367.495ZM434.463 379.966C437.041 376.66 439.947 373.599 443.173 370.806C446.923 367.574 450.99 364.084 455.326 360.362C496.187 325.285 564.577 266.579 616.348 211.654C684.387 145.735 777.204 116.13 842.034 139.686C894.194 158.744 1016.34 203.378 1074.35 254.21L1074.4 254.252L1074.46 254.285C1088.54 262.028 1093.64 275.455 1089.59 294.193C1084.67 316.955 1065.98 347.872 1035.55 383.594C1007.6 416.401 970.751 452.266 928.991 487.309C842.189 560.151 754.258 613.08 704.973 622.151C597.192 646.02 527.591 586.097 465.537 522.674L465.53 522.667C435.025 492.369 417.653 452.468 420.195 418.534C421.308 403.694 426.191 390.573 434.463 379.966Z" fill="url(#paint14_linear_727_890)"/>
</mask>
<g mask="url(#mask7_727_890)">
<path d="M1050.19 368.362C1072.55 339.581 1086.39 314.53 1090.52 295.187C1094.67 275.768 1089.37 261.808 1074.76 253.691C1016.51 202.417 894.263 157.259 842.054 137.973C776.767 113.991 683.495 143.537 615.232 209.821C563.637 264.706 495.447 323.335 454.706 358.365C450.38 362.084 446.321 365.573 442.578 368.804C428.718 380.827 420.628 397.72 419.179 417.651C416.677 452.058 434.258 492.525 465.059 523.256C495.962 554.977 530.08 587.144 570.118 607.53C612.846 629.286 657.182 634.694 705.66 624.062C755.091 615.077 843.118 562.143 929.897 489.211C971.623 454.144 1008.44 418.229 1036.36 385.352C1041.28 379.561 1045.89 373.889 1050.19 368.362ZM434.704 379.021C437.274 375.713 440.172 372.653 443.39 369.861C447.132 366.632 451.188 363.145 455.515 359.425C496.279 324.375 564.507 265.713 616.134 210.794C683.998 144.898 776.692 115.491 841.524 139.305C893.684 158.572 1015.84 203.694 1073.9 254.838L1073.95 254.881L1074.01 254.914C1088.1 262.721 1093.22 276.2 1089.21 294.977C1084.34 317.786 1065.73 348.731 1035.38 384.46C1007.51 417.273 970.763 453.125 929.101 488.139C842.501 560.919 754.734 613.729 705.502 622.678C597.841 646.289 528.171 585.994 466.036 522.212L466.029 522.205C435.486 491.733 418.048 451.67 420.522 417.651C421.605 402.774 426.458 389.632 434.704 379.021Z" fill="url(#paint15_linear_727_890)"/>
</g>
<mask id="mask8_727_890" style="mask-type:alpha" maskUnits="userSpaceOnUse" x="474" y="157" width="566" height="415">
<path d="M1011.27 357.379C1024.99 339.788 1034.1 324.142 1037.65 311.505C1041.46 297.897 1038.93 287.843 1030.12 281.622C1018.25 262.666 989.654 241.046 945.121 217.358C912.681 200.101 871.097 181.656 831.033 166.753C766.703 142.937 690.366 163.458 626.831 221.646C605.761 243.021 583.401 264.919 561.777 286.096C533.811 313.484 507.397 339.353 490.772 357.381C476.831 372.6 471.75 394.589 476.452 419.287C480.909 442.698 494.034 466.72 512.468 485.197C553.941 528.408 580.376 544.412 598.773 553.527C634.026 570.992 670.678 575.645 710.825 567.751C753.71 561.261 826.596 521.013 901.011 462.721C948.549 425.485 987.074 388.408 1011.27 357.379ZM488.757 361.589C489.662 360.428 490.613 359.305 491.61 358.213C508.21 340.212 534.612 314.356 562.565 286.981C584.194 265.799 606.558 243.897 627.611 222.537C690.766 164.7 766.64 144.282 830.549 167.942C870.569 182.828 912.105 201.252 944.505 218.487C988.942 242.125 1017.42 263.648 1029.15 282.46L1029.21 282.556L1029.31 282.619C1037.74 288.524 1040.16 298.155 1036.49 311.243C1026.77 345.896 974.603 403.562 900.336 461.739C826.087 519.901 753.43 560.049 710.719 566.514C670.804 574.363 634.386 569.739 599.359 552.385C564.486 535.108 535.076 506.909 513.35 484.273L513.343 484.265C495.064 465.945 482.049 442.139 477.635 418.951C473.354 396.454 477.304 376.277 488.757 361.589Z" fill="url(#paint16_linear_727_890)"/>
</mask>
<g mask="url(#mask8_727_890)">
<path d="M1011.1 358.15C1024.77 340.552 1033.85 324.891 1037.36 312.23C1041.15 298.596 1038.6 288.507 1029.79 282.243C1017.89 263.2 989.265 241.434 944.717 217.547C912.266 200.145 870.675 181.524 830.61 166.46C766.279 142.385 690.036 162.732 626.66 220.887C605.646 242.257 583.345 264.147 561.778 285.317C533.886 312.695 507.54 338.555 490.963 356.583C477.062 371.801 472.027 393.834 476.775 418.614C481.275 442.102 494.438 466.23 512.895 484.813C554.424 528.266 580.872 544.394 599.274 553.589C634.537 571.208 671.172 575.985 711.275 568.191C754.118 561.811 826.873 521.674 901.121 463.447C948.552 426.253 986.978 389.191 1011.1 358.15ZM488.958 360.796C489.86 359.635 490.808 358.511 491.803 357.419C508.355 339.419 534.688 313.572 562.567 286.207C584.139 265.032 606.444 243.137 627.441 221.783C690.437 163.978 766.217 143.733 830.128 167.65C870.15 182.698 911.692 201.297 944.104 218.677C988.556 242.513 1017.06 264.181 1028.82 283.08L1028.88 283.176L1028.97 283.241C1037.41 289.186 1039.85 298.851 1036.21 311.964C1026.57 346.682 974.545 404.349 900.445 462.46C826.362 520.557 753.835 560.596 711.167 566.95C671.295 574.699 634.894 569.953 599.858 552.447C564.975 535.016 535.53 506.652 513.775 483.889L513.767 483.881C495.466 465.455 482.413 441.545 477.957 418.281C473.634 395.709 477.541 375.489 488.958 360.796Z" fill="url(#paint17_linear_727_890)"/>
</g>
<mask id="mask9_727_890" style="mask-type:alpha" maskUnits="userSpaceOnUse" x="530" y="183" width="458" height="332">
<path d="M972.6 349.457C978.275 342.179 982.471 335.548 984.962 329.779C988.605 321.341 988.638 314.798 985.063 310.326C986.19 289.679 954.454 265.192 927.577 248.259C897.273 229.166 856.864 209.318 819.483 195.166C787.295 183.023 757.171 180.019 727.39 185.983C696.977 192.073 667.8 207.329 638.192 232.622C595.778 272.913 556.912 317.037 539.159 345.055C530.568 358.742 528.349 377.079 532.908 396.69C537.174 415.036 547.179 433.264 560.361 446.697C594.357 483.21 642.828 523.628 716.503 511.994C752.514 508.169 810.555 480.478 871.735 437.926C916.441 406.83 953.171 374.371 972.6 349.457ZM556.684 322.344C577.053 296.222 606.947 263.741 638.85 233.435C668.279 208.296 697.288 193.123 727.509 187.072C757.098 181.147 787.041 184.137 819.051 196.212C888.92 222.665 986.285 275.628 983.986 310.554L983.972 310.772L984.103 310.929C987.532 315.072 987.496 321.283 983.996 329.392C973.063 354.715 928.786 396.96 871.191 437.017C810.161 479.466 752.314 507.082 716.449 510.892C643.205 522.458 594.98 482.227 561.147 445.887L561.138 445.878C548.079 432.57 538.167 414.517 533.943 396.349C529.454 377.04 531.617 359.021 540.034 345.61C544.394 338.732 550.031 330.876 556.684 322.344Z" fill="url(#paint18_linear_727_890)"/>
</mask>
<g mask="url(#mask9_727_890)">
<path d="M972.464 350.139C978.12 342.858 982.3 336.223 984.777 330.445C988.401 321.996 988.421 315.435 984.839 310.94C985.925 290.239 954.163 265.59 927.273 248.529C896.952 229.292 856.533 209.267 819.151 194.962C786.962 182.688 756.854 179.584 727.107 185.473C696.727 191.488 667.602 206.697 638.066 231.968C595.762 272.24 557.011 316.366 539.327 344.406C530.769 358.105 528.588 376.485 533.183 396.163C537.482 414.572 547.517 432.88 560.715 446.39C594.759 483.106 643.275 523.781 716.874 512.34C752.852 508.614 810.795 481.025 871.847 438.543C916.459 407.498 953.098 375.062 972.464 350.139ZM556.794 321.687C577.097 295.555 606.905 263.077 638.725 232.786C668.082 207.667 697.04 192.542 727.228 186.565C756.783 180.715 786.71 183.804 818.721 196.009C888.593 222.747 985.992 276.151 983.764 311.165L983.75 311.383L983.882 311.541C987.317 315.706 987.293 321.934 983.811 330.055C972.937 355.413 928.775 397.638 871.301 437.629C810.399 480.008 752.649 507.524 716.818 511.235C643.65 522.609 595.38 482.122 561.5 445.58L561.491 445.571C548.414 432.187 538.474 414.055 534.217 395.824C529.693 376.448 531.819 358.387 540.202 344.966C544.545 338.082 550.163 330.222 556.794 321.687Z" fill="url(#paint19_linear_727_890)"/>
</g>
<mask id="mask10_727_890" style="mask-type:alpha" maskUnits="userSpaceOnUse" x="585" y="208" width="361" height="249">
<path d="M935.046 347.63C937.492 344.493 939.04 341.751 939.567 339.504C944.334 334.824 946.301 329.25 945.421 322.94C942.846 304.48 916.843 283.545 895.483 269.234C870.066 252.204 837.279 235.252 807.779 223.885C774.394 211.048 749.089 206.431 725.727 208.918C700.804 211.571 676.576 222.671 649.479 243.854C619.866 269.132 595.562 304.094 587.54 332.942C580.437 358.87 592.483 391.619 608.233 408.306C639.763 444.089 678.07 460.249 722.089 456.334C739.386 455.646 761.057 450.275 786.475 440.373C808.483 431.799 832.676 420.009 856.441 406.276C893.644 384.774 923.813 362.034 935.046 347.63ZM938.737 339.049L938.703 339.207C938.235 341.378 936.741 344.047 934.357 347.104C909.636 378.812 789.079 452.708 722.105 455.374C678.347 459.266 640.276 443.199 608.929 407.621L608.92 407.61C593.34 391.106 581.413 358.737 588.426 333.139C596.395 304.485 620.568 269.726 650.012 244.593C676.939 223.544 701.01 212.507 725.748 209.874C748.965 207.404 774.147 212.003 807.4 224.79C836.846 236.136 869.573 253.057 894.941 270.054C916.158 284.268 941.979 305.019 944.508 323.151C945.348 329.169 943.443 334.482 938.853 338.937L938.737 339.049Z" fill="url(#paint20_linear_727_890)"/>
</mask>
<g mask="url(#mask10_727_890)">
<path d="M934.972 348.22C937.41 345.082 938.952 342.338 939.474 340.086C944.227 335.408 946.183 329.824 945.291 323.495C942.681 304.976 916.655 283.905 895.282 269.491C869.85 252.337 837.052 235.24 807.551 223.753C774.164 210.78 748.868 206.074 725.528 208.496C700.628 211.081 676.44 222.138 649.403 243.297C619.862 268.554 595.644 303.537 587.684 332.44C580.638 358.417 592.74 391.292 608.511 408.073C640.089 444.049 678.402 460.368 722.381 456.576C739.664 455.938 761.309 450.618 786.69 440.767C808.665 432.236 832.818 420.487 856.539 406.789C893.673 385.341 923.775 362.629 934.972 348.22ZM938.643 339.628L938.61 339.786C938.147 341.961 936.659 344.633 934.282 347.691C909.641 379.411 789.317 453.143 722.395 455.614C678.676 459.383 640.601 443.157 609.206 407.387L609.196 407.376C593.595 390.78 581.613 358.286 588.57 332.64C596.477 303.932 620.564 269.152 649.938 244.039C676.804 223.014 700.836 212.02 725.551 209.455C748.746 207.048 773.92 211.737 807.174 224.659C836.621 236.125 869.358 253.191 894.743 270.311C915.972 284.628 941.815 305.514 944.379 323.704C945.23 329.74 943.337 335.063 938.759 339.516L938.643 339.628Z" fill="url(#paint21_linear_727_890)"/>
</g>
<mask id="mask11_727_890" style="mask-type:alpha" maskUnits="userSpaceOnUse" x="634" y="232" width="280" height="170">
<path d="M909.689 358.081C912.138 354.938 913.489 351.439 913.726 347.598C914.319 337.965 908.042 321.256 874.77 296.356C852.467 279.665 823.097 263.408 796.206 252.869C764.427 240.415 743.72 232.803 724.168 232.126C703.942 231.425 685.591 238.164 660.829 255.387C647.179 264.878 638.776 277.58 635.848 293.134C629.52 326.768 650.577 363.103 656.128 370.296C666.499 383.729 682.484 392.952 703.643 397.708C721.855 401.801 743.939 402.616 769.28 400.131C815.088 395.638 863.782 380.95 894.079 368.702C901.21 365.82 906.425 362.266 909.689 358.081ZM647.472 268.91C651.203 264.124 655.792 259.831 661.225 256.053C685.828 238.942 704.038 232.245 724.08 232.94C743.517 233.614 764.172 241.208 795.881 253.636C844.909 272.851 914.807 317.372 912.946 347.612C912.418 356.195 905.993 363.038 893.847 367.947C863.602 380.174 814.992 394.836 769.268 399.321C744.005 401.799 722 400.989 703.864 396.912C682.871 392.193 667.02 383.057 656.753 369.757C651.243 362.619 630.341 326.566 636.614 293.229C638.331 284.102 641.967 275.969 647.472 268.91Z" fill="url(#paint22_linear_727_890)"/>
</mask>
<g mask="url(#mask11_727_890)">
<path d="M909.681 358.635C912.123 355.491 913.466 351.987 913.694 348.136C914.268 338.479 907.962 321.705 874.665 296.635C852.345 279.831 822.964 263.44 796.072 252.79C764.292 240.204 743.585 232.509 724.046 231.769C703.833 231.004 685.509 237.706 660.799 254.899C647.179 264.375 638.807 277.086 635.912 292.673C629.656 326.379 650.771 362.878 656.332 370.107C666.722 383.609 682.714 392.906 703.866 397.739C722.072 401.899 744.142 402.784 769.46 400.369C815.225 396.005 863.854 381.426 894.104 369.237C901.224 366.369 906.428 362.822 909.681 358.635ZM647.479 268.418C651.198 263.631 655.775 259.341 661.196 255.569C685.747 238.487 703.931 231.828 723.959 232.586C743.383 233.321 764.038 240.998 795.749 253.557C844.779 272.975 914.715 317.831 912.915 348.147C912.404 356.752 905.997 363.595 893.87 368.48C863.672 380.647 815.127 395.201 769.446 399.557C744.206 401.965 722.216 401.085 704.085 396.942C683.098 392.146 667.241 382.937 656.955 369.568C651.434 362.394 630.476 326.179 636.678 292.771C638.376 283.624 641.993 275.48 647.479 268.418Z" fill="url(#paint23_linear_727_890)"/>
</g>
<defs>
<linearGradient id="paint0_linear_727_890" x1="675.53" y1="-9.13718" x2="940.543" y2="936.838" gradientUnits="userSpaceOnUse">
<stop stop-color="white"/>
<stop offset="0.0436" stop-color="#B4B4B4"/>
<stop offset="0.1507"/>
<stop offset="0.1714" stop-color="#171717"/>
<stop offset="0.3859" stop-color="white"/>
<stop offset="0.6326" stop-color="#E6E6E6"/>
<stop offset="0.8567" stop-color="#1A1A1A"/>
<stop offset="0.9987"/>
</linearGradient>
<linearGradient id="paint1_linear_727_890" x1="674.652" y1="-10.7315" x2="939.027" y2="939.255" gradientUnits="userSpaceOnUse">
<stop stop-color="#CC6028"/>
<stop offset="1" stop-color="#CC6028" stop-opacity="0"/>
</linearGradient>
<linearGradient id="paint2_linear_727_890" x1="681.311" y1="13.4877" x2="925.958" y2="886.744" gradientUnits="userSpaceOnUse">
<stop stop-color="white"/>
<stop offset="0.0436" stop-color="#B4B4B4"/>
<stop offset="0.1507"/>
<stop offset="0.1714" stop-color="#171717"/>
<stop offset="0.3859" stop-color="white"/>
<stop offset="0.6326" stop-color="#E6E6E6"/>
<stop offset="0.8567" stop-color="#1A1A1A"/>
<stop offset="0.9987"/>
</linearGradient>
<linearGradient id="paint3_linear_727_890" x1="680.5" y1="12.0177" x2="924.556" y2="888.976" gradientUnits="userSpaceOnUse">
<stop stop-color="#CC6028"/>
<stop offset="1" stop-color="#CC6028" stop-opacity="0"/>
</linearGradient>
<linearGradient id="paint4_linear_727_890" x1="687.053" y1="35.8145" x2="911.42" y2="836.648" gradientUnits="userSpaceOnUse">
<stop stop-color="white"/>
<stop offset="0.0436" stop-color="#B4B4B4"/>
<stop offset="0.1507"/>
<stop offset="0.1714" stop-color="#171717"/>
<stop offset="0.3859" stop-color="white"/>
<stop offset="0.6326" stop-color="#E6E6E6"/>
<stop offset="0.8567" stop-color="#1A1A1A"/>
<stop offset="0.9987"/>
</linearGradient>
<linearGradient id="paint5_linear_727_890" x1="686.309" y1="34.4655" x2="910.133" y2="838.697" gradientUnits="userSpaceOnUse">
<stop stop-color="#CC6028"/>
<stop offset="1" stop-color="#CC6028" stop-opacity="0"/>
</linearGradient>
<linearGradient id="paint6_linear_727_890" x1="692.818" y1="58.1347" x2="896.909" y2="786.562" gradientUnits="userSpaceOnUse">
<stop stop-color="white"/>
<stop offset="0.0436" stop-color="#B4B4B4"/>
<stop offset="0.1507"/>
<stop offset="0.1714" stop-color="#171717"/>
<stop offset="0.3859" stop-color="white"/>
<stop offset="0.6326" stop-color="#E6E6E6"/>
<stop offset="0.8567" stop-color="#1A1A1A"/>
<stop offset="0.9987"/>
</linearGradient>
<linearGradient id="paint7_linear_727_890" x1="692.141" y1="56.9062" x2="895.737" y2="788.424" gradientUnits="userSpaceOnUse">
<stop stop-color="#CC6028"/>
<stop offset="1" stop-color="#CC6028" stop-opacity="0"/>
</linearGradient>
<linearGradient id="paint8_linear_727_890" x1="698.559" y1="80.1459" x2="882.462" y2="736.475" gradientUnits="userSpaceOnUse">
<stop stop-color="white"/>
<stop offset="0.0436" stop-color="#B4B4B4"/>
<stop offset="0.1507"/>
<stop offset="0.1714" stop-color="#171717"/>
<stop offset="0.3859" stop-color="white"/>
<stop offset="0.6326" stop-color="#E6E6E6"/>
<stop offset="0.8567" stop-color="#1A1A1A"/>
<stop offset="0.9987"/>
</linearGradient>
<linearGradient id="paint9_linear_727_890" x1="697.948" y1="79.0392" x2="881.403" y2="738.155" gradientUnits="userSpaceOnUse">
<stop stop-color="#CC6028"/>
<stop offset="1" stop-color="#CC6028" stop-opacity="0"/>
</linearGradient>
<linearGradient id="paint10_linear_727_890" x1="704.322" y1="102.011" x2="868.083" y2="686.398" gradientUnits="userSpaceOnUse">
<stop stop-color="white"/>
<stop offset="0.0436" stop-color="#B4B4B4"/>
<stop offset="0.1507"/>
<stop offset="0.1714" stop-color="#171717"/>
<stop offset="0.3859" stop-color="white"/>
<stop offset="0.6326" stop-color="#E6E6E6"/>
<stop offset="0.8567" stop-color="#1A1A1A"/>
<stop offset="0.9987"/>
</linearGradient>
<linearGradient id="paint11_linear_727_890" x1="703.778" y1="101.025" x2="867.137" y2="687.896" gradientUnits="userSpaceOnUse">
<stop stop-color="#CC6028"/>
<stop offset="1" stop-color="#CC6028" stop-opacity="0"/>
</linearGradient>
<linearGradient id="paint12_linear_727_890" x1="710.095" y1="123.514" x2="853.823" y2="636.345" gradientUnits="userSpaceOnUse">
<stop stop-color="white"/>
<stop offset="0.0436" stop-color="#B4B4B4"/>
<stop offset="0.1507"/>
<stop offset="0.1714" stop-color="#171717"/>
<stop offset="0.3859" stop-color="white"/>
<stop offset="0.6326" stop-color="#E6E6E6"/>
<stop offset="0.8567" stop-color="#1A1A1A"/>
<stop offset="0.9987"/>
</linearGradient>
<linearGradient id="paint13_linear_727_890" x1="709.615" y1="122.65" x2="852.988" y2="637.662" gradientUnits="userSpaceOnUse">
<stop stop-color="#CC6028"/>
<stop offset="1" stop-color="#CC6028" stop-opacity="0"/>
</linearGradient>
<linearGradient id="paint14_linear_727_890" x1="715.917" y1="144.604" x2="839.738" y2="586.315" gradientUnits="userSpaceOnUse">
<stop stop-color="white"/>
<stop offset="0.0436" stop-color="#B4B4B4"/>
<stop offset="0.1507"/>
<stop offset="0.1714" stop-color="#171717"/>
<stop offset="0.3859" stop-color="white"/>
<stop offset="0.6326" stop-color="#E6E6E6"/>
<stop offset="0.8567" stop-color="#1A1A1A"/>
<stop offset="0.9987"/>
</linearGradient>
<linearGradient id="paint15_linear_727_890" x1="715.503" y1="143.859" x2="839.014" y2="587.452" gradientUnits="userSpaceOnUse">
<stop stop-color="#CC6028"/>
<stop offset="1" stop-color="#CC6028" stop-opacity="0"/>
</linearGradient>
<linearGradient id="paint16_linear_727_890" x1="721.899" y1="165.326" x2="825.946" y2="536.391" gradientUnits="userSpaceOnUse">
<stop stop-color="white"/>
<stop offset="0.0436" stop-color="#B4B4B4"/>
<stop offset="0.1507"/>
<stop offset="0.1714" stop-color="#171717"/>
<stop offset="0.3859" stop-color="white"/>
<stop offset="0.6326" stop-color="#E6E6E6"/>
<stop offset="0.8567" stop-color="#1A1A1A"/>
<stop offset="0.9987"/>
</linearGradient>
<linearGradient id="paint17_linear_727_890" x1="721.55" y1="164.698" x2="825.332" y2="537.346" gradientUnits="userSpaceOnUse">
<stop stop-color="#CC6028"/>
<stop offset="1" stop-color="#CC6028" stop-opacity="0"/>
</linearGradient>
<linearGradient id="paint18_linear_727_890" x1="728.282" y1="185.262" x2="812.83" y2="486.663" gradientUnits="userSpaceOnUse">
<stop stop-color="white"/>
<stop offset="0.0436" stop-color="#B4B4B4"/>
<stop offset="0.1507"/>
<stop offset="0.1714" stop-color="#171717"/>
<stop offset="0.3859" stop-color="white"/>
<stop offset="0.6326" stop-color="#E6E6E6"/>
<stop offset="0.8567" stop-color="#1A1A1A"/>
<stop offset="0.9987"/>
</linearGradient>
<linearGradient id="paint19_linear_727_890" x1="727.997" y1="184.755" x2="812.325" y2="487.445" gradientUnits="userSpaceOnUse">
<stop stop-color="#CC6028"/>
<stop offset="1" stop-color="#CC6028" stop-opacity="0"/>
</linearGradient>
<linearGradient id="paint20_linear_727_890" x1="740.013" y1="203.288" x2="805.476" y2="436.702" gradientUnits="userSpaceOnUse">
<stop stop-color="white"/>
<stop offset="0.0436" stop-color="#B4B4B4"/>
<stop offset="0.1507"/>
<stop offset="0.1714" stop-color="#171717"/>
<stop offset="0.3859" stop-color="white"/>
<stop offset="0.6326" stop-color="#E6E6E6"/>
<stop offset="0.8567" stop-color="#1A1A1A"/>
<stop offset="0.9987"/>
</linearGradient>
<linearGradient id="paint21_linear_727_890" x1="739.793" y1="202.895" x2="805.087" y2="437.307" gradientUnits="userSpaceOnUse">
<stop stop-color="#CC6028"/>
<stop offset="1" stop-color="#CC6028" stop-opacity="0"/>
</linearGradient>
<linearGradient id="paint22_linear_727_890" x1="753.865" y1="220.01" x2="803.504" y2="396.915" gradientUnits="userSpaceOnUse">
<stop stop-color="white"/>
<stop offset="0.0436" stop-color="#B4B4B4"/>
<stop offset="0.1507"/>
<stop offset="0.1714" stop-color="#171717"/>
<stop offset="0.3859" stop-color="white"/>
<stop offset="0.6326" stop-color="#E6E6E6"/>
<stop offset="0.8567" stop-color="#1A1A1A"/>
<stop offset="0.9987"/>
</linearGradient>
<linearGradient id="paint23_linear_727_890" x1="753.697" y1="219.711" x2="803.204" y2="397.374" gradientUnits="userSpaceOnUse">
<stop stop-color="#CC6028"/>
<stop offset="1" stop-color="#CC6028" stop-opacity="0"/>
</linearGradient>
</defs>
</svg>
