<svg xmlns="http://www.w3.org/2000/svg" width="20" height="21" viewBox="0 0 20 21" fill="none">
  <path d="M6 3.5C5.20435 3.5 4.44129 3.81607 3.87868 4.37868C3.31607 4.94129 3 5.70435 3 6.5V14.5C3 15.2956 3.31607 16.0587 3.87868 16.6213C4.44129 17.1839 5.20435 17.5 6 17.5H14C14.7956 17.5 15.5587 17.1839 16.1213 16.6213C16.6839 16.0587 17 15.2956 17 14.5V6.5C17 5.70435 16.6839 4.94129 16.1213 4.37868C15.5587 3.81607 14.7956 3.5 14 3.5H6ZM4 6.5C4 5.96957 4.21071 5.46086 4.58579 5.08579C4.96086 4.71071 5.46957 4.5 6 4.5H14C14.5304 4.5 15.0391 4.71071 15.4142 5.08579C15.7893 5.46086 16 5.96957 16 6.5V14.5C16 15.0304 15.7893 15.5391 15.4142 15.9142C15.0391 16.2893 14.5304 16.5 14 16.5H6C5.46957 16.5 4.96086 16.2893 4.58579 15.9142C4.21071 15.5391 4 15.0304 4 14.5V6.5ZM13.354 8.854C13.4479 8.76011 13.5006 8.63278 13.5006 8.5C13.5006 8.36722 13.4479 8.23989 13.354 8.146C13.2601 8.05211 13.1328 7.99937 13 7.99937C12.8672 7.99937 12.7399 8.05211 12.646 8.146L9 11.793L7.354 10.146C7.30751 10.0995 7.25232 10.0626 7.19158 10.0375C7.13084 10.0123 7.06574 9.99937 7 9.99937C6.93426 9.99937 6.86916 10.0123 6.80842 10.0375C6.74768 10.0626 6.69249 10.0995 6.646 10.146C6.59951 10.1925 6.56264 10.2477 6.53748 10.3084C6.51232 10.3692 6.49937 10.4343 6.49937 10.5C6.49937 10.5657 6.51232 10.6308 6.53748 10.6916C6.56264 10.7523 6.59951 10.8075 6.646 10.854L8.646 12.854C8.69245 12.9006 8.74762 12.9375 8.80837 12.9627C8.86911 12.9879 8.93423 13.0009 9 13.0009C9.06577 13.0009 9.13089 12.9879 9.19163 12.9627C9.25238 12.9375 9.30755 12.9006 9.354 12.854L13.354 8.854Z" fill="white"/>
</svg>