<svg width="54" height="54" viewBox="0 0 54 54" fill="none" xmlns="http://www.w3.org/2000/svg">
<circle cx="27" cy="27" r="25.5" fill="#BB2749" stroke="white"/>
<path d="M39.5 26.75C39.5 27.0318 39.3881 27.302 39.1888 27.5013C38.9895 27.7006 38.7193 27.8125 38.4375 27.8125H27.8125V38.4375C27.8125 38.7193 27.7006 38.9895 27.5013 39.1888C27.302 39.3881 27.0318 39.5 26.75 39.5C26.4682 39.5 26.198 39.3881 25.9987 39.1888C25.7994 38.9895 25.6875 38.7193 25.6875 38.4375V27.8125H15.0625C14.7807 27.8125 14.5105 27.7006 14.3112 27.5013C14.1119 27.302 14 27.0318 14 26.75C14 26.4682 14.1119 26.198 14.3112 25.9987C14.5105 25.7994 14.7807 25.6875 15.0625 25.6875H25.6875V15.0625C25.6875 14.7807 25.7994 14.5105 25.9987 14.3112C26.198 14.1119 26.4682 14 26.75 14C27.0318 14 27.302 14.1119 27.5013 14.3112C27.7006 14.5105 27.8125 14.7807 27.8125 15.0625V25.6875H38.4375C38.7193 25.6875 38.9895 25.7994 39.1888 25.9987C39.3881 26.198 39.5 26.4682 39.5 26.75Z" fill="white"/>
</svg>
