<svg width="1440" height="225" viewBox="0 0 1440 225" fill="none" xmlns="http://www.w3.org/2000/svg">
<path opacity="0.2" d="M-104 18C-51.1667 20.6667 72 5 277.5 129.5C487.769 256.889 699.5 40 866.5 29C1033.5 18 1105 189.5 1245.5 185C1357.9 181.4 1491 60.8333 1543.5 1" stroke="#333333"/>
<path opacity="0.2" d="M-48 70.9999C-19.6667 65.4999 64.5 67.5999 174.5 120C312 185.5 350.5 188 453 154C555.5 120 759.5 12 868 41.5C976.5 71 1058.5 203 1230 172C1367.2 147.2 1459.83 99.3333 1489 78.5" stroke="#CC6028"/>
<path opacity="0.2" d="M-16 105C39.3333 110.333 179.9 134.7 299.5 189.5C449 258 532.5 167.5 691 124.5C849.5 81.5 916 106.5 1089.5 148C1263 189.5 1392.5 145.5 1456 124.5" stroke="#333333"/>
<path opacity="0.2" d="M-19 130C26.5 122.333 170.6 116.6 383 155C648.5 203 674 148 878.5 125.5C1083 103 1070 110 1229.5 144C1389 178 1383.5 179 1459.5 158" stroke="#BB2749"/>
<g filter="url(#filter0_d_702_1147)">
<rect x="75" y="83" width="31.3923" height="31.3923" rx="8" transform="rotate(-30 75 83)" fill="#BB2749" shape-rendering="crispEdges"/>
<path d="M106.41 82.9899L96.4414 100.256L86.473 82.9899L106.41 82.9899Z" fill="white"/>
</g>
<g filter="url(#filter1_d_702_1147)">
<rect x="387.899" y="188.126" width="31.3923" height="31.3923" rx="8" transform="rotate(10.5971 387.899 188.126)" fill="#CC6028" shape-rendering="crispEdges"/>
<g clip-path="url(#clip0_702_1147)">
<path d="M397.582 205.136C397.052 204.899 396.431 205.229 396.301 205.797L395.863 207.716C395.774 208.104 395.973 208.479 396.307 208.699C396.941 209.117 397.286 209.901 397.107 210.685C396.876 211.694 395.87 212.326 394.861 212.095C393.852 211.864 393.221 210.859 393.451 209.849L395.611 200.406C395.727 199.899 395.412 199.399 394.906 199.283L393.078 198.865C392.572 198.749 392.071 199.063 391.955 199.57L389.796 209.014C389.016 212.422 391.527 215.829 395.234 215.895C397.405 215.935 399.46 214.641 400.367 212.673C401.751 209.668 400.327 206.365 397.582 205.136ZM400.959 196.82C400.613 196.721 400.252 196.931 400.172 197.281L399.897 198.485C399.823 198.808 400.013 199.132 400.33 199.221C405.196 200.614 408.242 205.518 407.4 210.515C407.346 210.839 407.555 211.151 407.875 211.224L409.097 211.504C409.448 211.584 409.794 211.35 409.855 210.996C410.952 204.707 407.098 198.569 400.959 196.82ZM400.134 200.478C399.786 200.371 399.417 200.583 399.335 200.941L399.056 202.163C398.983 202.483 399.17 202.802 399.481 202.897C402.35 203.806 404.142 206.696 403.734 209.688C403.692 210.011 403.896 210.314 404.212 210.387L405.438 210.667C405.792 210.748 406.147 210.509 406.202 210.148C406.84 205.883 404.253 201.761 400.134 200.478Z" fill="white"/>
</g>
</g>
<g filter="url(#filter2_d_702_1147)">
<rect x="1014.35" y="66.2817" width="31.3923" height="31.3923" rx="8" transform="rotate(-9.04561 1014.35 66.2817)" fill="#BB2749" shape-rendering="crispEdges"/>
<path d="M1033.07 76.1964L1041.98 79.6078C1042.07 78.0993 1041.82 76.5894 1041.25 75.1918C1040.67 73.7942 1039.79 72.5455 1038.66 71.5396L1032.96 76.1529L1033.07 76.1964ZM1036.46 87.9494C1039.2 86.5815 1041.16 84.0112 1041.78 81.0268L1034.94 78.4096L1036.46 87.9494ZM1035.52 88.3634L1034.34 80.9667L1033.89 81.3317L1026.49 87.3301C1028.57 88.7209 1031.1 89.273 1033.57 88.8755C1034.25 88.767 1034.9 88.594 1035.52 88.3634ZM1031.46 75.5831L1037.51 70.6699C1036.19 69.7943 1034.69 69.2439 1033.12 69.0642C1031.55 68.8846 1029.96 69.0808 1028.48 69.6366L1029.66 77.0334L1031.46 75.5831ZM1027.54 70.0507C1024.8 71.4185 1022.84 73.9888 1022.22 76.9732L1029.06 79.5904L1027.54 70.0507ZM1029.31 81.1804L1022.02 78.3922C1021.93 79.9007 1022.18 81.4106 1022.75 82.8082C1023.33 84.2058 1024.21 85.4546 1025.34 86.4604L1031.04 81.8471L1029.31 81.1804Z" fill="white"/>
</g>
<g filter="url(#filter3_d_702_1147)">
<rect x="1229.18" y="163.57" width="31.3923" height="31.3923" rx="8" transform="rotate(6.60979 1229.18 163.57)" fill="#CC6028" shape-rendering="crispEdges"/>
<path d="M1248.14 180.067L1248.53 176.589C1248.56 176.326 1248.48 176.061 1248.31 175.854C1248.15 175.647 1247.91 175.514 1247.64 175.484L1235.72 174.145C1235.46 174.115 1235.19 174.192 1234.98 174.357C1234.78 174.522 1234.64 174.763 1234.61 175.027L1233.5 184.964C1233.47 185.228 1233.54 185.493 1233.71 185.7C1233.88 185.907 1234.12 186.04 1234.38 186.07L1246.31 187.409C1246.57 187.439 1246.83 187.362 1247.04 187.197C1247.25 187.031 1247.38 186.79 1247.41 186.527L1247.8 183.049L1251.33 187.47L1252.56 176.539L1248.14 180.067Z" fill="white"/>
</g>
<defs>
<filter id="filter0_d_702_1147" x="75" y="67.3038" width="45.8827" height="43.8827" filterUnits="userSpaceOnUse" color-interpolation-filters="sRGB">
<feFlood flood-opacity="0" result="BackgroundImageFix"/>
<feColorMatrix in="SourceAlpha" type="matrix" values="0 0 0 0 0 0 0 0 0 0 0 0 0 0 0 0 0 0 127 0" result="hardAlpha"/>
<feOffset dx="3" dy="1"/>
<feComposite in2="hardAlpha" operator="out"/>
<feColorMatrix type="matrix" values="0 0 0 0 0.8 0 0 0 0 0.376471 0 0 0 0 0.156863 0 0 0 1 0"/>
<feBlend mode="normal" in2="BackgroundImageFix" result="effect1_dropShadow_702_1147"/>
<feBlend mode="normal" in="SourceGraphic" in2="effect1_dropShadow_702_1147" result="shape"/>
</filter>
<filter id="filter1_d_702_1147" x="382.126" y="188.126" width="39.63" height="37.63" filterUnits="userSpaceOnUse" color-interpolation-filters="sRGB">
<feFlood flood-opacity="0" result="BackgroundImageFix"/>
<feColorMatrix in="SourceAlpha" type="matrix" values="0 0 0 0 0 0 0 0 0 0 0 0 0 0 0 0 0 0 127 0" result="hardAlpha"/>
<feOffset dx="3" dy="1"/>
<feComposite in2="hardAlpha" operator="out"/>
<feColorMatrix type="matrix" values="0 0 0 0 0.733333 0 0 0 0 0.152941 0 0 0 0 0.286275 0 0 0 1 0"/>
<feBlend mode="normal" in2="BackgroundImageFix" result="effect1_dropShadow_702_1147"/>
<feBlend mode="normal" in="SourceGraphic" in2="effect1_dropShadow_702_1147" result="shape"/>
</filter>
<filter id="filter2_d_702_1147" x="1014.35" y="61.3462" width="38.9374" height="36.9374" filterUnits="userSpaceOnUse" color-interpolation-filters="sRGB">
<feFlood flood-opacity="0" result="BackgroundImageFix"/>
<feColorMatrix in="SourceAlpha" type="matrix" values="0 0 0 0 0 0 0 0 0 0 0 0 0 0 0 0 0 0 127 0" result="hardAlpha"/>
<feOffset dx="3" dy="1"/>
<feComposite in2="hardAlpha" operator="out"/>
<feColorMatrix type="matrix" values="0 0 0 0 0.8 0 0 0 0 0.376471 0 0 0 0 0.156863 0 0 0 1 0"/>
<feBlend mode="normal" in2="BackgroundImageFix" result="effect1_dropShadow_702_1147"/>
<feBlend mode="normal" in="SourceGraphic" in2="effect1_dropShadow_702_1147" result="shape"/>
</filter>
<filter id="filter3_d_702_1147" x="1225.57" y="163.57" width="37.7971" height="35.7971" filterUnits="userSpaceOnUse" color-interpolation-filters="sRGB">
<feFlood flood-opacity="0" result="BackgroundImageFix"/>
<feColorMatrix in="SourceAlpha" type="matrix" values="0 0 0 0 0 0 0 0 0 0 0 0 0 0 0 0 0 0 127 0" result="hardAlpha"/>
<feOffset dx="3" dy="1"/>
<feComposite in2="hardAlpha" operator="out"/>
<feColorMatrix type="matrix" values="0 0 0 0 0.733333 0 0 0 0 0.152941 0 0 0 0 0.286275 0 0 0 1 0"/>
<feBlend mode="normal" in2="BackgroundImageFix" result="effect1_dropShadow_702_1147"/>
<feBlend mode="normal" in="SourceGraphic" in2="effect1_dropShadow_702_1147" result="shape"/>
</filter>
<clipPath id="clip0_702_1147">
<rect width="20" height="20" fill="white" transform="translate(393 195) rotate(12.8799)"/>
</clipPath>
</defs>
</svg>
