<svg width="35" height="33" viewBox="0 0 35 33" fill="none" xmlns="http://www.w3.org/2000/svg">
<g filter="url(#filter0_d_1078_2775)">
<rect y="5.16382" width="28" height="28" rx="8" transform="rotate(-10.6274 0 5.16382)" fill="#BB2749" shape-rendering="crispEdges"/>
<g clip-path="url(#clip0_1078_2775)">
<path d="M23.6135 14.5935L23.3142 13.029L21.7496 13.3283L21.4503 11.7637C21.3698 11.3494 21.1286 10.9838 20.7793 10.7467C20.4301 10.5097 20.0013 10.4204 19.5865 10.4985L18.022 10.7978L17.7227 9.23325L16.1581 9.53255L16.4574 11.0971L14.8929 11.3964L14.5936 9.83185L13.029 10.1312L13.3283 11.6957L11.7638 11.995C11.3495 12.0755 10.9839 12.3168 10.7468 12.666C10.5098 13.0152 10.4205 13.444 10.4986 13.8588L10.7979 15.4234L9.23335 15.7227L9.53265 17.2872L11.0972 16.9879L11.3965 18.5524L9.83195 18.8517L10.1312 20.4163L11.6958 20.117L11.9951 21.6815C12.0756 22.0958 12.3168 22.4614 12.6661 22.6985C13.0153 22.9355 13.4441 23.0248 13.8589 22.9467L15.4234 22.6474L15.7227 24.212L17.2873 23.9127L16.988 22.3481L18.5525 22.0488L18.8518 23.6134L20.4163 23.3141L20.117 21.7495L21.6816 21.4502C22.0959 21.3697 22.4615 21.1285 22.6986 20.7792C22.9356 20.43 23.0249 20.0012 22.9468 19.5864L22.6475 18.0219L24.2121 17.7226L23.9128 16.158L22.3482 16.4573L22.0489 14.8928L23.6135 14.5935ZM21.3823 19.8857L13.5596 21.3822L12.0631 13.5595L19.8858 12.063L21.3823 19.8857Z" fill="white"/>
<path d="M15.624 13.6892L14.5719 13.8905L14.1967 20.4494L15.0001 20.2957L15.0825 18.7595L16.8942 18.413L17.5284 19.8121L18.3592 19.6531L15.624 13.6892ZM15.0682 18.1127L15.21 14.5388L15.246 14.5319L16.6695 17.8064L15.0682 18.1127ZM17.8793 13.2578L18.6616 13.1081L19.8588 19.3663L19.0765 19.5159L17.8793 13.2578Z" fill="white"/>
</g>
</g>
<defs>
<filter id="filter0_d_1078_2775" x="0" y="0" width="35.6836" height="33.6836" filterUnits="userSpaceOnUse" color-interpolation-filters="sRGB">
<feFlood flood-opacity="0" result="BackgroundImageFix"/>
<feColorMatrix in="SourceAlpha" type="matrix" values="0 0 0 0 0 0 0 0 0 0 0 0 0 0 0 0 0 0 127 0" result="hardAlpha"/>
<feOffset dx="3" dy="1"/>
<feComposite in2="hardAlpha" operator="out"/>
<feColorMatrix type="matrix" values="0 0 0 0 0.8 0 0 0 0 0.376471 0 0 0 0 0.156863 0 0 0 1 0"/>
<feBlend mode="normal" in2="BackgroundImageFix" result="effect1_dropShadow_1078_2775"/>
<feBlend mode="normal" in="SourceGraphic" in2="effect1_dropShadow_1078_2775" result="shape"/>
</filter>
<clipPath id="clip0_1078_2775">
<rect width="21.4065" height="21.4065" fill="white" transform="translate(3.85303 7.85852) rotate(-10.83)"/>
</clipPath>
</defs>
</svg>
