<svg width="40" height="39" viewBox="0 0 40 39" fill="none" xmlns="http://www.w3.org/2000/svg">
<g filter="url(#filter0_d_1078_2295)">
<rect x="14" width="28" height="28" rx="8" transform="rotate(30 14 0)" fill="#BB2749" shape-rendering="crispEdges"/>
<rect x="14.183" y="0.683013" width="27" height="27" rx="7.5" transform="rotate(30 14.183 0.683013)" stroke="#E95252" shape-rendering="crispEdges"/>
<g clip-path="url(#clip0_1078_2295)">
<path d="M21.401 17.3893L25.6546 24.7572C26.5668 23.7647 27.2417 22.578 27.6286 21.2867C28.0154 19.9954 28.104 18.6331 27.8877 17.3026L21.3505 17.2983L21.401 17.3893ZM17.1463 27.436C19.8122 28.0274 22.6142 27.3482 24.7193 25.6282L21.4538 19.9739L17.1463 27.436ZM16.2579 27.1909L19.5978 21.4051L19.0822 21.4061L10.5868 21.4044C11.2466 23.5368 12.6888 25.3406 14.6238 26.4536C15.1568 26.7613 15.6979 27.0015 16.2579 27.1909ZM20.6257 16.0561L27.579 16.0533C27.1604 14.7081 26.4278 13.4819 25.4417 12.4757C24.4556 11.4696 23.2443 10.7124 21.9079 10.2668L18.568 16.0526L20.6257 16.0561ZM21.0195 10.0217C18.3536 9.43031 15.5516 10.1095 13.4465 11.8295L16.712 17.4838L21.0195 10.0217ZM15.994 18.7275L12.5112 12.7005C11.599 13.693 10.9241 14.8796 10.5372 16.1709C10.1504 17.4623 10.0618 18.8245 10.2781 20.1551L16.8153 20.1593L15.994 18.7275Z" fill="white"/>
</g>
</g>
<defs>
<filter id="filter0_d_1078_2295" x="0" y="0" width="42.2485" height="39.2487" filterUnits="userSpaceOnUse" color-interpolation-filters="sRGB">
<feFlood flood-opacity="0" result="BackgroundImageFix"/>
<feColorMatrix in="SourceAlpha" type="matrix" values="0 0 0 0 0 0 0 0 0 0 0 0 0 0 0 0 0 0 127 0" result="hardAlpha"/>
<feOffset dx="4" dy="1"/>
<feComposite in2="hardAlpha" operator="out"/>
<feColorMatrix type="matrix" values="0 0 0 0 0.8 0 0 0 0 0.376471 0 0 0 0 0.156863 0 0 0 1 0"/>
<feBlend mode="normal" in2="BackgroundImageFix" result="effect1_dropShadow_1078_2295"/>
<feBlend mode="normal" in="SourceGraphic" in2="effect1_dropShadow_1078_2295" result="shape"/>
</filter>
<clipPath id="clip0_1078_2295">
<rect width="21.4065" height="21.4065" fill="white" transform="translate(33.7036 14.8102) rotate(119.996)"/>
</clipPath>
</defs>
</svg>
