<svg width="54" height="54" viewBox="0 0 54 54" fill="none" xmlns="http://www.w3.org/2000/svg">
<circle cx="27" cy="27" r="25.5" fill="white" stroke="#BB2749"/>
<path d="M31.2046 27.006L22.7126 35.733C22.6426 35.8033 22.5874 35.8868 22.5499 35.9786C22.5125 36.0704 22.4937 36.1688 22.4945 36.2679C22.4953 36.3671 22.5158 36.4651 22.5547 36.5563C22.5937 36.6475 22.6503 36.7301 22.7214 36.7992C22.7925 36.8684 22.8766 36.9228 22.9688 36.9592C23.061 36.9957 23.1596 37.0135 23.2587 37.0116C23.3579 37.0097 23.4557 36.9882 23.5464 36.9482C23.6372 36.9083 23.7192 36.8508 23.7876 36.779L32.7876 27.529C32.9238 27.3889 33 27.2013 33 27.006C33 26.8106 32.9238 26.623 32.7876 26.483L23.7876 17.2329C23.7192 17.1611 23.6372 17.1036 23.5464 17.0637C23.4557 17.0237 23.3579 17.0022 23.2587 17.0003C23.1596 16.9984 23.061 17.0162 22.9688 17.0527C22.8766 17.0891 22.7925 17.1435 22.7214 17.2127C22.6503 17.2818 22.5937 17.3644 22.5547 17.4556C22.5158 17.5468 22.4953 17.6448 22.4945 17.744C22.4937 17.8431 22.5125 17.9415 22.5499 18.0333C22.5874 18.1251 22.6426 18.2086 22.7126 18.279L31.2046 27.006Z" fill="#BB2749"/>
</svg>
