<svg width="1440" height="463" viewBox="0 0 1440 463" fill="none" xmlns="http://www.w3.org/2000/svg">
<mask id="mask0_727_720" style="mask-type:alpha" maskUnits="userSpaceOnUse" x="-29" y="-368" width="1507" height="1051">
<path d="M102.628 136.653C89.5659 152.932 77.3787 168.961 66.1398 184.66C4.41824 270.868 -27.2727 344.239 -28.053 402.737C-28.8516 462.586 3.1078 505.338 66.9398 529.804C260.736 604.087 394.199 633.471 482.513 652.917C522.263 661.669 553.659 668.582 576.277 676.595L576.62 675.48L576.277 676.595C613.905 689.926 686.8 679.043 766.514 648.191C852.299 614.99 927.124 566.367 971.805 514.789C1033.43 443.649 1120.85 382.064 1183.33 342.928C1256.11 297.34 1338.36 255.341 1403.36 230.581C1445.32 214.597 1470.43 184.536 1475.98 143.643C1485.59 72.8373 1435.44 -21.196 1345.11 -101.761C1302.3 -139.948 1258.02 -179.435 1213.27 -215.02C1163.79 -254.361 1119.03 -284.536 1076.42 -307.269C1025.54 -334.415 976.322 -351.956 925.953 -360.894C869.713 -370.876 813.284 -370.003 753.441 -358.223C651.232 -338.104 458.812 -213.612 285.512 -55.4775C214.623 9.20934 152.304 74.738 102.628 136.653ZM1452.53 193.381C1440.45 208.435 1423.58 220.24 1402.28 228.355C1337.15 253.165 1254.75 295.237 1181.85 340.899C1119.24 380.114 1031.64 441.836 969.836 513.177C925.38 564.494 850.874 612.896 765.42 645.968C686.237 676.614 614.024 687.495 576.964 674.365C554.186 666.295 522.717 659.366 482.875 650.594C394.64 631.166 261.298 601.807 67.6944 527.599C5.02851 503.58 -26.3472 461.647 -25.5649 402.965C-24.7902 344.922 6.7673 271.963 68.2297 186.117C122.129 110.833 197.885 27.9099 287.307 -53.6866C460.334 -211.573 652.302 -335.841 754.135 -355.885C813.666 -367.603 869.785 -368.474 925.7 -358.55C975.78 -349.662 1024.73 -332.213 1075.35 -305.207C1170.32 -254.541 1258.36 -176.017 1343.5 -100.079C1433.2 -20.0789 1483.01 73.1173 1473.51 143.144C1470.89 162.476 1463.79 179.342 1452.53 193.381Z" fill="url(#paint0_linear_727_720)"/>
</mask>
<g mask="url(#mask0_727_720)">
<path d="M102.627 136.654C89.5647 152.933 77.3774 168.962 66.1384 184.661C4.41655 270.869 -27.2746 344.24 -28.0551 402.737C-28.8539 462.586 3.10548 505.338 66.9376 529.804C260.734 604.086 394.197 633.47 482.511 652.916C522.261 661.668 553.657 668.58 576.275 676.593L576.619 675.478L576.275 676.593C613.903 689.924 686.798 679.041 766.513 648.189C852.298 614.988 927.123 566.365 971.804 514.787C1033.43 443.647 1120.85 382.062 1183.33 342.926C1256.11 297.338 1338.36 255.34 1403.36 230.58C1445.32 214.596 1470.43 184.534 1475.98 143.642C1485.59 72.836 1435.45 -21.1969 1345.11 -101.761C1302.3 -139.949 1258.03 -179.435 1213.27 -215.02C1163.79 -254.361 1119.03 -284.536 1076.42 -307.268C1025.54 -334.414 976.324 -351.955 925.955 -360.893C869.715 -370.874 813.286 -370.001 753.443 -358.221C651.233 -338.102 458.812 -213.61 285.512 -55.4762C214.622 9.21072 152.303 74.7393 102.627 136.654ZM1452.53 193.38C1440.45 208.434 1423.58 220.238 1402.28 228.353C1337.15 253.163 1254.75 295.235 1181.85 340.897C1119.24 380.112 1031.64 441.834 969.835 513.175C925.379 564.492 850.873 612.894 765.419 645.966C686.235 676.612 614.023 687.494 576.962 674.363C554.184 666.294 522.715 659.365 482.873 650.592C394.638 631.165 261.296 601.806 67.6921 527.599C5.0262 503.581 -26.3495 461.647 -25.567 402.966C-24.7921 344.923 6.76561 271.964 68.2283 186.118C122.128 110.834 197.885 27.9112 287.307 -53.6853C460.335 -211.571 652.303 -335.839 754.137 -355.884C813.667 -367.601 869.786 -368.473 925.701 -358.549C975.782 -349.661 1024.73 -332.212 1075.35 -305.206C1170.32 -254.54 1258.36 -176.017 1343.5 -100.079C1433.2 -20.0798 1483.02 73.116 1473.51 143.143C1470.89 162.475 1463.8 179.34 1452.53 193.38Z" fill="url(#paint1_linear_727_720)"/>
</g>
<mask id="mask1_727_720" style="mask-type:alpha" maskUnits="userSpaceOnUse" x="27" y="-314" width="1392" height="969">
<path d="M144.518 152.343C134.189 165.217 124.474 177.912 115.414 190.385C58.2716 269.049 28.7265 335.989 27.6027 389.345C26.4651 443.289 54.7653 481.933 111.716 504.204C283.319 572.651 409.145 603.178 492.405 623.378C531.492 632.861 562.363 640.351 585.186 648.565C622.078 661.822 691.087 652.825 765.285 625.085C844.733 595.383 914.919 550.582 957.847 502.172C1015.06 436.834 1095.08 379.741 1152.13 343.351C1219.15 300.6 1292.01 262.253 1352.02 238.141C1389.88 222.919 1412.42 194.928 1417.19 157.197C1425.46 91.6966 1379.3 5.20362 1296.71 -68.5287L1296.72 -68.5279C1218.86 -138.16 1138.35 -210.165 1049.33 -257.526C1002.45 -282.472 957.066 -298.631 910.598 -306.929C858.763 -316.184 806.766 -315.52 751.641 -304.901C656.914 -286.974 478.711 -173.462 318.287 -28.8602C250.597 32.1535 191.284 94.0566 144.518 152.343ZM1395.2 204.531C1384.44 217.941 1369.6 228.575 1350.97 236.066C1290.84 260.224 1217.85 298.637 1150.73 341.455C1093.56 377.918 1013.38 435.134 956.009 500.647C913.3 548.81 843.416 593.405 764.282 622.99C690.582 650.544 622.208 659.544 585.844 646.477C562.892 638.216 531.96 630.711 492.8 621.21C409.609 601.027 283.892 570.526 112.449 502.143C56.5846 480.297 28.8273 442.426 29.9406 389.577C31.0561 336.646 60.4717 270.092 117.371 191.764C167.367 122.931 237.425 47.2262 319.961 -27.1692C480.128 -171.538 657.903 -284.842 752.278 -302.703C807.116 -313.266 858.823 -313.928 910.357 -304.727C956.557 -296.478 1001.69 -280.405 1048.33 -255.587C1137.07 -208.375 1217.46 -136.48 1295.2 -66.9504L1295.2 -66.9494C1377.2 6.25728 1423.05 91.9739 1414.86 156.747C1412.54 175.163 1405.88 191.216 1395.2 204.531Z" fill="url(#paint2_linear_727_720)"/>
</mask>
<g mask="url(#mask1_727_720)">
<path d="M144.518 152.344C134.189 165.218 124.474 177.913 115.413 190.385C58.2708 269.05 28.7255 335.989 27.6015 389.346C26.4638 443.289 54.764 481.933 111.715 504.204C283.318 572.65 409.144 603.177 492.404 623.377C531.491 632.86 562.363 640.349 585.185 648.564C622.077 661.82 691.087 652.823 765.285 625.084C844.733 595.381 914.919 550.581 957.847 502.17C1015.06 436.832 1095.08 379.74 1152.13 343.349C1219.15 300.599 1292.01 262.251 1352.02 238.14C1389.89 222.917 1412.42 194.927 1417.19 157.195C1425.47 91.6954 1379.3 5.20277 1296.72 -68.5291L1296.72 -68.5283C1218.86 -138.16 1138.35 -210.164 1049.34 -257.525C1002.45 -282.471 957.068 -298.63 910.601 -306.927C858.765 -316.183 806.769 -315.519 751.643 -304.9C656.916 -286.973 478.712 -173.46 318.287 -28.8588C250.597 32.1547 191.284 94.0578 144.518 152.344ZM1395.2 204.53C1384.44 217.939 1369.6 228.574 1350.97 236.064C1290.84 260.223 1217.86 298.636 1150.73 341.454C1093.56 377.916 1013.38 435.133 956.009 500.646C913.3 548.809 843.416 593.403 764.282 622.989C690.581 650.542 622.207 659.542 585.843 646.475C562.891 638.214 531.959 630.71 492.799 621.209C409.608 601.026 283.89 570.525 112.448 502.143C56.5832 480.297 28.826 442.426 29.9395 389.578C31.0551 336.647 60.4709 270.093 117.37 191.765C167.367 122.932 237.425 47.2274 319.962 -27.1679C480.129 -171.537 657.905 -284.841 752.28 -302.701C807.118 -313.265 858.825 -313.927 910.36 -304.726C956.559 -296.477 1001.69 -280.404 1048.33 -255.587C1137.07 -208.375 1217.46 -136.48 1295.2 -66.9508L1295.2 -66.9499C1377.2 6.25645 1423.05 91.9726 1414.87 156.746C1412.54 175.161 1405.88 191.215 1395.2 204.53Z" fill="url(#paint3_linear_727_720)"/>
</g>
<mask id="mask2_727_720" style="mask-type:alpha" maskUnits="userSpaceOnUse" x="83" y="-260" width="1277" height="888">
<path d="M186.427 167.873C178.775 177.408 171.515 186.821 164.649 196.11C112.084 267.232 84.6871 327.741 83.2206 375.955C81.7595 423.993 106.412 458.529 156.494 478.601C307.008 541.647 420.8 572.027 503.888 594.209C541.594 604.276 571.375 612.227 594.098 620.534C630.816 633.918 694.352 626.981 764.057 601.978C837.177 575.75 902.723 534.772 943.888 489.553C1039.58 381.646 1209.69 284.602 1300.68 245.7C1334.46 231.238 1354.42 205.313 1358.4 170.727C1365.32 110.535 1323.14 31.5905 1248.31 -35.2994C1181.13 -95.5784 1104.99 -163.903 1022.24 -207.784C979.351 -230.53 937.807 -245.309 895.241 -252.963C847.808 -261.493 800.246 -261.041 749.837 -251.581C706.059 -243.681 643.907 -214.932 570.107 -168.442C499.214 -123.782 421.411 -64.7588 351.027 -2.24213C286.539 55.0387 230.233 113.276 186.427 167.873ZM1337.87 215.738C1328.44 227.491 1315.63 236.938 1299.65 243.775C1208.5 282.747 1038.08 379.978 942.18 488.112C901.228 533.096 835.968 573.884 763.142 600.007C693.907 624.843 630.946 631.786 594.722 618.583C571.9 610.239 542.071 602.275 504.308 592.193C421.287 570.029 307.587 539.673 157.207 476.685C108.128 457.015 83.9771 423.205 85.4063 376.191C86.8604 328.373 114.134 268.224 166.469 197.414C212.573 135.041 276.929 66.5484 352.584 -0.649723C422.891 -63.0991 500.606 -122.055 571.412 -166.66C644.996 -213.013 706.896 -241.666 750.42 -249.52C800.566 -258.929 847.86 -259.381 895.012 -250.902C937.33 -243.293 978.642 -228.594 1021.31 -205.968C1103.79 -162.228 1179.82 -94.0094 1246.89 -33.8232L1246.89 -33.8224C1321.18 32.5814 1363.07 110.808 1356.22 170.328C1354.2 187.862 1347.99 203.128 1337.87 215.738Z" fill="url(#paint4_linear_727_720)"/>
</mask>
<g mask="url(#mask2_727_720)">
<path d="M186.426 167.874C178.775 177.409 171.515 186.822 164.649 196.111C112.083 267.232 84.6859 327.741 83.2192 375.956C81.758 423.994 106.411 458.529 156.492 478.601C307.007 541.647 420.799 572.026 503.887 594.208C541.593 604.275 571.374 612.226 594.097 620.533C630.815 633.917 694.351 626.98 764.056 601.976C837.177 575.748 902.723 534.771 943.888 489.552C1039.59 381.644 1209.69 284.601 1300.68 245.699C1334.46 231.237 1354.42 205.312 1358.4 170.726C1365.33 110.534 1323.14 31.5901 1248.31 -35.2995C1181.14 -95.5781 1104.99 -163.902 1022.25 -207.783C979.353 -230.528 937.809 -245.307 895.242 -252.962C847.81 -261.492 800.248 -261.04 749.838 -251.58C706.06 -243.68 643.909 -214.93 570.108 -168.441C499.215 -123.781 421.411 -64.7573 351.027 -2.24084C286.539 55.0398 230.233 113.277 186.426 167.874ZM1337.87 215.737C1328.44 227.49 1315.63 236.936 1299.65 243.774C1208.5 282.746 1038.08 379.977 942.181 488.11C901.228 533.095 835.967 573.882 763.142 600.006C693.907 624.841 630.945 631.785 594.721 618.582C571.899 610.238 542.07 602.274 504.307 592.192C421.286 570.028 307.586 539.672 157.205 476.685C108.127 457.015 83.9756 423.205 85.405 376.191C86.8591 328.373 114.133 268.225 166.469 197.415C212.573 135.042 276.929 66.5496 352.584 -0.648382C422.891 -63.0977 500.606 -122.054 571.413 -166.658C644.997 -213.012 706.897 -241.664 750.421 -249.518C800.567 -258.928 847.861 -259.38 895.014 -250.901C937.332 -243.292 978.644 -228.593 1021.31 -205.967C1103.8 -162.227 1179.82 -94.0092 1246.89 -33.8232L1246.89 -33.8224C1321.18 32.581 1363.07 110.807 1356.22 170.327C1354.21 187.861 1347.99 203.127 1337.87 215.737Z" fill="url(#paint5_linear_727_720)"/>
</g>
<mask id="mask3_727_720" style="mask-type:alpha" maskUnits="userSpaceOnUse" x="138" y="-205" width="1163" height="805">
<path d="M228.349 183.202C223.314 189.476 218.476 195.688 213.83 201.843C165.839 265.422 140.591 319.499 138.784 362.571C137.017 404.706 158.039 435.131 201.269 452.999C332.071 511.271 439.506 542.802 517.952 565.824C551.754 575.744 580.946 584.312 603.009 592.503C639.015 605.818 698.759 600.722 762.826 578.871C829.633 556.085 890.54 518.93 929.928 476.935C968.195 434.433 1023.45 388.537 1089.73 344.193C1142.94 308.599 1201.11 275.455 1249.34 253.258C1279.05 239.56 1296.43 215.689 1299.62 184.23C1305.17 129.349 1266.96 57.9646 1199.91 -2.0663C1129.71 -65.3086 1065.85 -120.699 995.155 -158.039C956.256 -178.587 918.55 -191.983 879.883 -198.995C836.856 -206.798 793.726 -206.558 748.034 -198.259C707.759 -191.407 650.833 -165.817 583.422 -124.254C518.932 -84.491 448.012 -31.7054 383.727 24.3798C322.426 77.861 269.137 132.365 228.349 183.202ZM1280.55 227.024C1272.46 237.106 1261.67 245.338 1248.34 251.486C1200.02 273.722 1141.75 306.919 1088.48 342.562C1022.07 386.987 966.702 432.982 928.35 475.578C889.168 517.354 828.533 554.335 762.003 577.026C698.369 598.73 639.153 603.838 603.6 590.69C581.465 582.472 552.237 573.894 518.395 563.962C440.01 540.957 332.658 509.452 201.967 451.229C159.655 433.739 139.091 403.995 140.818 362.813C142.609 320.107 167.74 266.363 215.513 203.072C257.731 147.153 316.388 85.8767 385.163 25.8725C449.376 -30.1508 520.212 -82.8741 584.621 -122.586C651.827 -164.023 708.517 -189.526 748.56 -196.337C794.014 -204.593 836.895 -204.834 879.667 -197.078C918.105 -190.107 955.598 -176.784 994.289 -156.348C1064.75 -119.131 1128.5 -63.837 1198.58 -0.695299L1198.58 -0.693662C1265.14 58.8926 1303.08 129.618 1297.59 183.883C1295.9 200.578 1290.12 215.094 1280.55 227.024Z" fill="url(#paint6_linear_727_720)"/>
</mask>
<g mask="url(#mask3_727_720)">
<path d="M228.35 183.203C223.315 189.477 218.476 195.688 213.831 201.844C165.839 265.423 140.591 319.5 138.783 362.572C137.017 404.706 158.039 435.131 201.268 452.999C332.07 511.271 439.506 542.801 517.952 565.823C551.754 575.743 580.946 584.311 603.009 592.501C639.015 605.817 698.759 600.721 762.826 578.869C829.634 556.083 890.54 518.929 929.929 476.933C968.196 434.432 1023.45 388.535 1089.73 344.191C1142.94 308.598 1201.11 275.453 1249.34 253.256C1279.05 239.558 1296.44 215.688 1299.62 184.228C1305.17 129.348 1266.97 57.9638 1199.91 -2.06677C1129.71 -65.3087 1065.85 -120.699 995.158 -158.039C956.259 -178.586 918.553 -191.982 879.886 -198.994C836.859 -206.797 793.729 -206.557 748.037 -198.258C707.762 -191.406 650.835 -165.816 583.424 -124.252C518.934 -84.4898 448.014 -31.7043 383.728 24.3809C322.427 77.862 269.138 132.366 228.35 183.203ZM1280.55 227.023C1272.46 237.104 1261.67 245.337 1248.34 251.485C1200.02 273.72 1141.76 306.917 1088.48 342.56C1022.07 386.985 966.704 432.981 928.351 475.577C889.169 517.352 828.533 554.333 762.003 577.024C698.369 598.728 639.153 603.836 603.6 590.688C581.465 582.471 552.237 573.893 518.395 563.961C440.01 540.957 332.658 509.451 201.967 451.229C159.655 433.739 139.09 403.996 140.817 362.813C142.609 320.108 167.74 266.364 215.514 203.073C257.731 147.154 316.388 85.8776 385.164 25.8735C449.378 -30.1497 520.213 -82.8729 584.623 -122.585C651.829 -164.022 708.519 -189.525 748.562 -196.336C794.017 -204.592 836.897 -204.833 879.669 -197.078C918.107 -190.106 955.6 -176.784 994.292 -156.347C1064.75 -119.131 1128.5 -63.8371 1198.58 -0.695757L1198.59 -0.694127C1265.15 58.8918 1303.08 129.617 1297.59 183.881C1295.9 200.577 1290.12 215.092 1280.55 227.023Z" fill="url(#paint7_linear_727_720)"/>
</g>
<mask id="mask4_727_720" style="mask-type:alpha" maskUnits="userSpaceOnUse" x="194" y="-151" width="1048" height="724">
<path d="M270.286 198.256C267.78 201.378 265.332 204.482 262.94 207.57C219.522 263.607 196.419 311.251 194.272 349.181C192.221 385.417 209.639 411.73 246.042 427.389C358.78 481.813 461.325 514.842 536.2 538.959C565.892 548.523 591.534 556.781 611.919 564.466C647.764 577.916 702.318 574.741 761.593 555.757C822.11 536.374 878.377 503.042 915.965 464.309C988.06 385.696 1112.7 303.717 1198 260.809C1223.65 247.866 1238.47 226.036 1240.84 197.679C1244.99 148.118 1210.76 84.3098 1151.5 31.1592L1151.5 31.1628C1091.78 -22.9145 1032.8 -74.2732 968.064 -108.301C933.159 -126.647 899.291 -138.662 864.523 -145.032C825.901 -152.109 787.206 -152.079 746.229 -144.941C709.445 -139.138 657.736 -116.707 596.706 -80.0736C538.609 -45.2012 474.565 1.34688 416.371 50.9944C358.25 100.581 307.978 151.278 270.286 198.256ZM1223.24 238.418C1216.51 246.806 1207.73 253.791 1197.01 259.194C1111.58 302.168 986.738 384.289 914.519 463.038C877.13 501.565 821.12 534.739 760.864 554.038C701.991 572.894 647.906 576.084 612.478 562.79C592.046 555.089 566.382 546.823 536.664 537.251C461.848 513.152 359.382 480.149 246.733 425.769C211.156 410.465 194.153 384.786 196.155 349.427C198.283 311.836 221.273 264.497 264.486 208.723C302.824 159.271 355.787 105.198 417.688 52.3879C475.814 2.79729 539.779 -43.6928 597.8 -78.5194C658.639 -115.037 710.128 -137.39 746.698 -143.16C787.462 -150.261 825.932 -150.293 864.319 -143.26C898.877 -136.928 932.551 -124.98 967.264 -106.734C1031.79 -72.8212 1090.65 -21.5573 1150.27 32.4256L1150.27 32.4292C1209.08 85.1764 1243.06 148.384 1238.96 197.386C1237.63 213.311 1232.29 227.134 1223.24 238.418Z" fill="url(#paint8_linear_727_720)"/>
</mask>
<g mask="url(#mask4_727_720)">
<path d="M270.285 198.258C267.78 201.379 265.331 204.484 262.94 207.572C219.522 263.609 196.418 311.253 194.271 349.182C192.22 385.418 209.638 411.731 246.041 427.39C358.779 481.813 461.324 514.842 536.2 538.959C565.891 548.522 591.533 556.781 611.918 564.466C647.763 577.916 702.317 574.741 761.593 555.756C822.11 536.373 878.377 503.042 915.965 464.308C988.061 385.696 1112.7 303.717 1198 260.808C1223.66 247.866 1238.47 226.036 1240.84 197.679C1244.99 148.118 1210.76 84.31 1151.5 31.1597L1151.5 31.1634C1091.78 -22.9136 1032.81 -74.2721 968.065 -108.3C933.161 -126.645 899.293 -138.66 864.525 -145.031C825.903 -152.107 787.208 -152.077 746.231 -144.939C709.447 -139.136 657.738 -116.704 596.707 -80.0716C538.61 -45.1992 474.565 1.34888 416.372 50.9963C358.25 100.583 307.978 151.28 270.285 198.258ZM1223.24 238.417C1216.51 246.805 1207.73 253.79 1197.01 259.194C1111.58 302.168 986.738 384.288 914.52 463.038C877.13 501.564 821.12 534.738 760.864 554.038C701.991 572.893 647.905 576.083 612.477 562.79C592.045 555.089 566.381 546.823 536.663 537.251C461.847 513.152 359.381 480.149 246.732 425.77C211.155 410.466 194.152 384.787 196.153 349.429C198.282 311.838 221.272 264.499 264.486 208.725C302.824 159.273 355.787 105.2 417.689 52.3898C475.815 2.79928 539.78 -43.6907 597.801 -78.5173C658.641 -115.035 710.13 -137.388 746.7 -143.158C787.464 -150.259 825.933 -150.291 864.321 -143.258C898.879 -136.926 932.553 -124.978 967.266 -106.732C1031.79 -72.82 1090.65 -21.5564 1150.27 32.4261L1150.27 32.4298C1209.08 85.1766 1243.06 148.384 1238.96 197.386C1237.63 213.31 1232.29 227.134 1223.24 238.417Z" fill="url(#paint9_linear_727_720)"/>
</g>
<mask id="mask5_727_720" style="mask-type:alpha" maskUnits="userSpaceOnUse" x="249" y="-96" width="934" height="642">
<path d="M312.227 212.946C312.133 213.062 312.043 213.175 311.95 213.292C273.1 261.785 252.139 302.997 249.648 335.782C247.342 366.132 261.191 388.338 290.812 401.779C387.235 453.704 487.74 489.074 561.124 514.9C584.104 522.987 603.951 529.971 620.827 536.428C656.009 549.825 706.865 548.443 760.355 532.642C814.614 516.613 866.241 487.105 901.998 451.683C933.57 418.032 975.731 382.152 1027.33 345.02C1066.14 317.087 1109.63 289.144 1146.65 268.356C1168.28 256.163 1180.53 236.35 1182.08 211.058C1184.78 166.828 1154.51 110.626 1103.09 64.3866C1053.29 19.0143 999.748 -27.8571 940.968 -58.5614C910.06 -74.7066 880.03 -85.3397 849.16 -91.0689C814.944 -97.4192 780.685 -97.5996 744.421 -91.6217C678.418 -82.1961 559.667 -14.1882 448.941 77.6045C393.984 123.165 346.718 169.958 312.227 212.946ZM1165.94 249.977C1160.59 256.642 1153.81 262.323 1145.69 266.906C1108.62 287.72 1065.07 315.697 1026.21 343.662C974.538 380.852 932.304 416.796 900.684 450.497C865.122 485.727 813.735 515.094 759.721 531.05C706.594 546.745 656.159 548.146 621.35 534.891C604.449 528.424 584.592 521.436 561.599 513.345C488.274 487.54 387.853 452.199 291.502 400.317C262.613 387.204 249.132 365.588 251.378 336.04C253.845 303.563 274.698 262.628 313.357 214.371C313.448 214.259 313.542 214.14 313.633 214.027C348.063 171.113 395.252 124.4 450.137 78.9004C560.657 -12.7222 679.087 -80.5902 744.834 -89.9783C780.908 -95.9252 814.965 -95.7463 848.969 -89.4356C879.649 -83.7426 909.503 -73.17 940.238 -57.1146C998.812 -26.5182 1052.25 20.2607 1101.95 65.5508L1101.96 65.5553C1152.98 111.434 1183.02 167.099 1180.35 210.825C1179.42 226.073 1174.51 239.29 1165.94 249.977Z" fill="url(#paint10_linear_727_720)"/>
</mask>
<g mask="url(#mask5_727_720)">
<path d="M312.226 212.948C312.132 213.063 312.042 213.177 311.949 213.293C273.099 261.787 252.138 302.999 249.646 335.783C247.34 366.134 261.19 388.339 290.81 401.78C387.234 453.704 487.739 489.074 561.123 514.9C584.102 522.987 603.949 529.971 620.826 536.428C656.008 549.824 706.864 548.443 760.354 532.641C814.613 516.612 866.24 487.104 901.997 451.682C933.57 418.032 975.731 382.152 1027.33 345.019C1066.14 317.087 1109.63 289.144 1146.65 268.356C1168.29 256.162 1180.54 236.35 1182.08 211.058C1184.78 166.828 1154.51 110.626 1103.09 64.3871C1053.29 19.015 999.749 -27.856 940.969 -58.5602C910.061 -74.7053 880.031 -85.3383 849.161 -91.0674C814.945 -97.4176 780.685 -97.598 744.422 -91.62C678.419 -82.1943 559.667 -14.1864 448.941 77.6062C393.984 123.167 346.717 169.959 312.226 212.948ZM1165.94 249.976C1160.59 256.642 1153.82 262.323 1145.69 266.906C1108.62 287.72 1065.07 315.696 1026.21 343.661C974.538 380.851 932.304 416.795 900.684 450.497C865.121 485.726 813.734 515.094 759.72 531.05C706.593 546.745 656.158 548.145 621.349 534.891C604.448 528.424 584.59 521.436 561.598 513.345C488.273 487.54 387.852 452.199 291.501 400.317C262.612 387.205 249.131 365.589 251.377 336.041C253.844 303.564 274.697 262.629 313.356 214.373C313.447 214.26 313.542 214.141 313.632 214.029C348.062 171.115 395.251 124.402 450.137 78.9021C560.657 -12.7204 679.087 -80.5884 744.835 -89.9766C780.909 -95.9235 814.966 -95.7447 848.97 -89.4341C879.649 -83.7412 909.504 -73.1687 940.239 -57.1133C998.813 -26.5172 1052.25 20.2614 1101.95 65.5512L1101.96 65.5557C1152.98 111.434 1183.02 167.099 1180.35 210.825C1179.42 226.073 1174.51 239.289 1165.94 249.976Z" fill="url(#paint11_linear_727_720)"/>
</g>
<mask id="mask6_727_720" style="mask-type:alpha" maskUnits="userSpaceOnUse" x="304" y="-42" width="820" height="561">
<path d="M354.005 227.292C324.029 264.651 307.507 296.595 304.855 322.346C302.333 346.826 312.654 364.924 335.535 376.142C417.043 427.57 520.804 466.953 596.568 495.71C608.456 500.222 619.687 504.485 629.738 508.388C664.814 521.941 710.762 522.344 759.117 509.523C807.874 496.594 853.657 471.568 888.03 439.053C910.614 415.673 975.976 353.017 1095.31 275.899C1112.95 264.439 1122.64 246.604 1123.33 224.318C1124.52 185.449 1098.22 136.9 1054.68 97.6183C1014.24 60.4662 966.669 18.5356 913.87 -8.82239C858.073 -37.7352 802.055 -47.3783 742.614 -38.3046C712.769 -34.5949 671.448 -18.4904 623.141 8.26604C577.13 33.7505 528.12 66.9198 481.413 104.189C433.18 142.674 391.48 182.367 360.821 218.979C358.477 221.778 356.204 224.551 354.005 227.292ZM1108.66 261.786C1104.74 266.68 1099.95 270.979 1094.35 274.62C1075.26 286.956 1036.97 312.403 995.075 344.211C951.091 377.6 914.677 409.139 886.847 437.953C852.663 470.288 807.102 495.192 758.578 508.059C710.55 520.794 664.966 520.413 630.222 506.988C620.166 503.083 608.933 498.821 597.041 494.306C521.335 465.572 417.649 426.217 336.286 374.871L336.203 374.824C313.999 363.954 303.983 346.389 306.43 322.619C309.209 295.641 328.454 260.154 362.089 219.987C392.69 183.444 434.323 143.816 482.485 105.388C529.133 68.1673 578.074 35.0444 624.017 9.59657C672.16 -17.0683 713.293 -33.1132 742.967 -36.8007C802.069 -45.8232 857.749 -36.238 913.209 -7.50014C965.813 19.7573 1013.28 61.5958 1053.64 98.6729L1053.64 98.6782C1096.83 137.644 1122.92 185.721 1121.74 224.149C1121.29 238.876 1116.83 251.616 1108.66 261.786Z" fill="url(#paint12_linear_727_720)"/>
</mask>
<g mask="url(#mask6_727_720)">
<path d="M354.004 227.294C324.029 264.653 307.506 296.596 304.854 322.347C302.332 346.827 312.653 364.925 335.535 376.143C417.042 427.57 520.804 466.954 596.567 495.71C608.455 500.222 619.686 504.485 629.737 508.388C664.814 521.941 710.761 522.344 759.117 509.522C807.874 496.594 853.657 471.567 888.031 439.053C910.615 415.672 975.977 353.016 1095.31 275.898C1112.96 264.438 1122.64 246.604 1123.33 224.318C1124.52 185.449 1098.22 136.9 1054.68 97.6186C1014.24 60.4667 966.67 18.5364 913.871 -8.82145C858.074 -37.7341 802.056 -47.3771 742.615 -38.3032C712.77 -34.5935 671.45 -18.489 623.142 8.26752C577.131 33.752 528.121 66.9213 481.414 104.19C433.181 142.675 391.48 182.369 360.821 218.98C358.477 221.779 356.204 224.552 354.004 227.294ZM1108.67 261.786C1104.74 266.68 1099.96 270.979 1094.35 274.62C1075.26 286.955 1036.98 312.403 995.076 344.211C951.092 377.599 914.678 409.139 886.847 437.953C852.663 470.287 807.102 495.192 758.578 508.059C710.55 520.793 664.965 520.413 630.222 506.988C620.166 503.083 608.933 498.82 597.041 494.306C521.334 465.572 417.649 426.217 336.286 374.872L336.202 374.825C313.999 363.955 303.982 346.39 306.43 322.62C309.209 295.642 328.454 260.155 362.089 219.988C392.691 183.446 434.323 143.818 482.486 105.39C529.134 68.1688 578.075 35.0459 624.018 9.59804C672.161 -17.0668 713.294 -33.1118 742.969 -36.7993C802.071 -45.8219 857.75 -36.2368 913.211 -7.49919C965.815 19.7581 1013.28 61.5964 1053.64 98.6732L1053.64 98.6786C1096.83 137.644 1122.93 185.721 1121.74 224.148C1121.29 238.875 1116.83 251.615 1108.67 261.786Z" fill="url(#paint13_linear_727_720)"/>
</g>
<mask id="mask7_727_720" style="mask-type:alpha" maskUnits="userSpaceOnUse" x="359" y="12" width="706" height="481">
<path d="M396.267 240.185C374.985 266.71 362.459 290.202 359.778 308.812C357.087 327.495 363.981 341.522 380.268 350.505C446.932 404.812 581.269 457.74 638.641 480.344C710.372 508.478 807.176 486.302 874.051 426.419C924.17 376.479 991.648 324.073 1031.96 292.762C1036.24 289.437 1040.26 286.318 1043.96 283.43C1057.67 272.674 1064.79 256.743 1064.56 237.366C1064.17 203.913 1041.83 163.094 1006.26 130.842C970.493 97.6142 931.26 63.7202 886.764 40.9151C839.28 16.5783 791.534 8.10536 740.801 15.0131C688.905 20.242 599.774 65.6555 513.751 130.706C472.39 161.984 436.338 194.443 409.497 224.573C404.771 229.879 400.356 235.091 396.267 240.185ZM1051.45 274.009C1049 277.057 1046.19 279.841 1043 282.338C1039.3 285.225 1035.29 288.343 1031.01 291.667C990.669 322.997 923.154 375.433 873.003 425.404C806.519 484.936 710.32 507.018 639.088 479.08C581.769 456.497 447.536 403.612 381.085 349.446L381.028 349.4L380.964 349.365C365.245 340.72 358.595 327.178 361.197 309.112C364.359 287.167 381.449 258.257 410.619 225.514C437.408 195.444 473.397 163.041 514.695 131.811C600.539 66.8959 689.405 21.5849 741.093 16.3767C853.762 1.03677 933.397 64.9814 1005.31 131.793L1005.32 131.8C1040.59 163.781 1062.74 204.194 1063.13 237.268C1063.3 251.733 1059.29 264.23 1051.45 274.009Z" fill="url(#paint14_linear_727_720)"/>
</mask>
<g mask="url(#mask7_727_720)">
<path d="M396.267 240.186C374.985 266.711 362.458 290.203 359.778 308.813C357.087 327.496 363.981 341.523 380.268 350.506C446.932 404.812 581.268 457.74 638.641 480.343C710.372 508.478 807.176 486.302 874.051 426.418C924.171 376.479 991.649 324.073 1031.96 292.762C1036.25 289.437 1040.26 286.318 1043.97 283.429C1057.67 272.674 1064.79 256.743 1064.56 237.365C1064.17 203.913 1041.83 163.095 1006.26 130.842C970.494 97.6146 931.261 63.7209 886.766 40.916C839.281 16.5793 791.535 8.10651 740.802 15.0142C688.906 20.2433 599.774 65.6568 513.751 130.707C472.39 161.985 436.338 194.444 409.497 224.574C404.77 229.88 400.356 235.092 396.267 240.186ZM1051.45 274.009C1049 277.057 1046.19 279.84 1043.01 282.338C1039.3 285.225 1035.29 288.342 1031.01 291.667C990.669 322.997 923.154 375.432 873.003 425.403C806.519 484.936 710.319 507.018 639.088 479.079C581.768 456.497 447.535 403.612 381.085 349.447L381.028 349.401L380.964 349.365C365.245 340.721 358.594 327.178 361.197 309.113C364.358 287.168 381.448 258.258 410.619 225.516C437.408 195.445 473.397 163.042 514.696 131.813C600.54 66.8972 689.406 21.5861 741.094 16.3779C853.764 1.03779 933.399 64.9821 1005.31 131.793L1005.32 131.8C1040.59 163.781 1062.74 204.194 1063.13 237.268C1063.3 251.732 1059.3 264.229 1051.45 274.009Z" fill="url(#paint15_linear_727_720)"/>
</g>
<mask id="mask8_727_720" style="mask-type:alpha" maskUnits="userSpaceOnUse" x="413" y="66" width="593" height="401">
<path d="M438.127 252.013C425.117 268.225 416.84 282.876 414.219 294.994C411.397 308.044 415.012 318.086 424.963 324.841C439.341 344.305 471.78 367.631 521.384 394.176C557.518 413.514 603.501 434.7 647.542 452.302C718.247 480.452 797.696 466.054 860.067 413.785C880.562 394.415 902.382 374.629 923.484 355.494C950.776 330.747 976.553 307.373 992.618 290.95C1006.08 277.079 1009.48 255.911 1002.22 231.356C995.335 208.081 979.158 183.558 957.834 164.073C909.708 118.626 880.085 100.964 859.654 90.6562C820.505 70.9038 781.034 63.6019 738.986 68.3341C693.893 71.4865 619.923 105.475 545.971 157.031C498.729 189.964 461.073 223.416 438.127 252.013ZM994.379 286.977C993.522 288.047 992.611 289.077 991.648 290.072C975.608 306.47 949.843 329.833 922.564 354.568C901.457 373.707 879.633 393.497 859.155 412.854C797.157 464.807 718.193 479.14 647.95 451.173C603.957 433.591 558.027 412.429 521.937 393.116C472.441 366.628 440.136 343.405 425.918 324.092L425.846 323.994L425.744 323.925C416.217 317.508 412.761 307.889 415.476 295.337C422.662 262.106 472.975 209.498 546.779 158.044C620.567 106.602 694.303 72.6949 739.212 69.5542C781.018 64.8495 820.235 72.1046 859.134 91.7309C897.862 111.271 931.767 141.105 956.979 164.912L956.987 164.92C978.132 184.241 994.171 208.544 1000.99 231.597C1007.61 253.964 1005.24 273.44 994.379 286.977Z" fill="url(#paint16_linear_727_720)"/>
</mask>
<g mask="url(#mask8_727_720)">
<path d="M438.127 252.014C425.118 268.226 416.84 282.876 414.22 294.995C411.397 308.045 415.012 318.087 424.963 324.842C439.341 344.305 471.78 367.631 521.384 394.177C557.519 413.514 603.502 434.7 647.543 452.302C718.248 480.452 797.696 466.053 860.068 413.785C880.563 394.415 902.383 374.629 923.486 355.494C950.777 330.747 976.555 307.373 992.619 290.95C1006.08 277.079 1009.49 255.911 1002.22 231.356C995.336 208.082 979.16 183.559 957.836 164.073C909.709 118.627 880.086 100.965 859.656 90.6572C820.506 70.9049 781.036 63.6031 738.988 68.3353C693.895 71.4878 619.924 105.476 545.972 157.032C498.73 189.965 461.073 223.417 438.127 252.014ZM994.381 286.977C993.523 288.047 992.612 289.077 991.65 290.072C975.609 306.47 949.844 329.833 922.565 354.568C901.458 373.707 879.634 393.497 859.156 412.854C797.158 464.807 718.193 479.139 647.95 451.173C603.957 433.591 558.027 412.43 521.937 393.116C472.441 366.628 440.136 343.406 425.919 324.093L425.846 323.995L425.744 323.925C416.217 317.508 412.762 307.89 415.477 295.338C422.663 262.107 472.975 209.5 546.78 158.045C620.568 106.604 694.304 72.6961 739.213 69.5554C781.019 64.8506 820.237 72.1057 859.136 91.7319C897.863 111.272 931.769 141.105 956.98 164.913L956.989 164.921C978.134 184.242 994.172 208.544 1000.99 231.597C1007.61 253.964 1005.24 273.441 994.381 286.977Z" fill="url(#paint17_linear_727_720)"/>
</g>
<mask id="mask9_727_720" style="mask-type:alpha" maskUnits="userSpaceOnUse" x="465" y="121" width="483" height="321">
<path d="M479.293 261.671C473.914 268.375 470.052 274.555 467.927 280.019C464.818 288.011 465.38 294.417 469.596 299.065C470.281 319.204 506.313 345.564 536.48 364.162C570.494 385.132 615.338 407.598 656.437 424.259C691.824 438.563 724.176 443.761 755.345 440.15C787.175 436.462 816.852 423.704 846.07 401.148C887.557 364.861 924.915 324.554 941.26 298.441C949.159 285.678 949.847 267.884 943.2 248.335C936.982 230.046 924.663 211.444 909.399 197.3C869.862 158.99 814.555 115.773 737.162 121.651C699.163 122.701 639.885 145.476 578.623 182.572C533.856 209.682 497.707 238.724 479.293 261.671ZM924.672 319.373C905.367 343.433 876.5 373.008 845.295 400.303C816.253 422.722 786.748 435.41 755.118 439.075C724.151 442.662 691.992 437.491 656.802 423.267C579.983 392.125 471.463 332.958 470.722 298.922L470.717 298.71L470.563 298.546C466.532 294.232 466.003 288.151 468.991 280.47C478.319 256.486 521.611 218.425 579.285 183.504C640.398 146.498 699.476 123.78 737.319 122.734C814.259 116.891 869.288 159.907 908.635 198.034L908.646 198.044C923.768 212.056 935.972 230.48 942.13 248.592C948.673 267.84 948.015 285.327 940.278 297.832C936.264 304.242 930.978 311.514 924.672 319.373Z" fill="url(#paint18_linear_727_720)"/>
</mask>
<g mask="url(#mask9_727_720)">
<path d="M479.293 261.672C473.914 268.376 470.052 274.556 467.927 280.02C464.818 288.011 465.38 294.418 469.596 299.066C470.281 319.204 506.313 345.564 536.48 364.162C570.495 385.132 615.338 407.598 656.438 424.259C691.824 438.563 724.177 443.761 755.345 440.15C787.176 436.462 816.853 423.704 846.071 401.148C887.558 364.861 924.916 324.554 941.261 298.441C949.16 285.678 949.849 267.884 943.202 248.335C936.984 230.046 924.664 211.444 909.401 197.3C869.863 158.991 814.556 115.774 737.163 121.651C699.164 122.702 639.886 145.477 578.623 182.573C533.856 209.683 497.707 238.724 479.293 261.672ZM924.674 319.373C905.368 343.433 876.501 373.008 845.296 400.303C816.254 422.722 786.749 435.41 755.119 439.074C724.152 442.662 691.993 437.491 656.803 423.267C579.983 392.126 471.463 332.959 470.722 298.923L470.717 298.711L470.563 298.547C466.533 294.232 466.004 288.151 468.991 280.471C478.32 256.487 521.612 218.426 579.286 183.505C640.399 146.499 699.477 123.781 737.32 122.735C814.261 116.892 869.289 159.908 908.637 198.034L908.647 198.044C923.769 212.056 935.973 230.48 942.131 248.592C948.675 267.841 948.017 285.327 940.279 297.832C936.265 304.242 930.979 311.514 924.674 319.373Z" fill="url(#paint19_linear_727_720)"/>
</g>
<mask id="mask10_727_720" style="mask-type:alpha" maskUnits="userSpaceOnUse" x="509" y="174" width="382" height="244">
<path d="M518.37 265.549C516.051 268.439 514.653 271.009 514.297 273.171C509.647 277.4 508.061 282.714 509.575 288.961C514.003 307.24 543.611 329.697 567.669 345.316C596.295 363.903 632.766 382.966 665.225 396.309C701.955 411.385 729.329 417.802 753.985 417.115C780.288 416.381 805.08 407.319 832.007 388.594C861.239 366.044 883.933 333.611 889.844 305.948C895.041 281.078 879.22 248.091 860.921 230.563C824.07 193.146 781.793 174.447 735.266 174.988C716.906 174.367 694.314 178.007 668.145 185.806C645.487 192.559 620.795 202.299 596.738 213.975C559.075 232.256 529.019 252.277 518.37 265.549ZM515.223 273.679L515.244 273.527C515.544 271.434 516.892 268.932 519.153 266.115C542.587 236.9 664.245 173.526 735.336 175.927C781.588 175.389 823.605 193.98 860.242 231.183L860.253 231.195C878.354 248.53 894.013 281.135 888.882 305.689C883.011 333.166 860.438 365.41 831.372 387.83C804.614 406.437 779.983 415.448 753.875 416.176C729.373 416.859 702.131 410.468 665.545 395.452C633.146 382.132 596.743 363.104 568.17 344.553C544.275 329.039 514.877 306.776 510.528 288.822C509.084 282.864 510.627 277.801 515.109 273.78L515.223 273.679Z" fill="url(#paint20_linear_727_720)"/>
</mask>
<g mask="url(#mask10_727_720)">
<path d="M518.37 265.549C516.051 268.44 514.653 271.01 514.297 273.172C509.648 277.4 508.061 282.714 509.575 288.961C514.003 307.241 543.611 329.697 567.669 345.317C596.296 363.903 632.766 382.966 665.225 396.309C701.956 411.385 729.33 417.802 753.985 417.115C780.289 416.381 805.08 407.319 832.008 388.593C861.24 366.044 883.934 333.611 889.845 305.948C895.041 281.078 879.22 248.091 860.922 230.564C824.071 193.146 781.794 174.448 735.267 174.989C716.906 174.368 694.315 178.008 668.146 185.806C645.488 192.559 620.796 202.3 596.738 213.975C559.076 232.257 529.02 252.278 518.37 265.549ZM515.223 273.679L515.244 273.528C515.544 271.435 516.892 268.933 519.153 266.116C542.588 236.901 664.246 173.527 735.337 175.927C781.589 175.39 823.605 193.981 860.243 231.183L860.254 231.195C878.355 248.53 894.014 281.135 888.883 305.689C883.012 333.166 860.439 365.41 831.372 387.83C804.614 406.437 779.984 415.448 753.876 416.176C729.373 416.859 702.131 410.468 665.546 395.452C633.146 382.132 596.743 363.105 568.171 344.554C544.275 329.04 514.878 306.777 510.528 288.823C509.084 282.865 510.627 277.801 515.109 273.78L515.223 273.679Z" fill="url(#paint21_linear_727_720)"/>
</g>
<mask id="mask11_727_720" style="mask-type:alpha" maskUnits="userSpaceOnUse" x="540" y="226" width="302" height="169">
<path d="M543.622 256.961C541.301 259.854 540.183 263.179 540.282 266.923C540.53 276.31 548.74 293.141 586.436 320.014C611.705 338.028 644.457 356.146 674.048 368.48C709.019 383.056 731.758 392.06 752.635 394.189C774.233 396.391 793.154 391.167 817.943 376.16C831.607 367.889 839.393 356.082 841.089 341.072C844.753 308.614 819.016 271.46 812.449 264.001C800.181 250.071 782.32 239.842 759.36 233.601C739.598 228.228 716.013 225.775 689.261 226.31C640.904 227.276 590.406 238.009 559.27 247.731C551.941 250.019 546.715 253.107 543.622 256.961ZM830.927 363.92C827.392 368.326 822.899 372.185 817.46 375.477C792.83 390.387 774.055 395.58 752.655 393.398C731.901 391.282 709.218 382.299 674.324 367.754C620.374 345.266 541.892 296.436 541.111 266.968C540.889 258.603 547.104 252.384 559.587 248.487C590.668 238.782 641.079 228.068 689.348 227.104C716.017 226.57 739.517 229.013 759.198 234.363C781.978 240.556 799.687 250.69 811.833 264.482C818.352 271.884 843.897 308.75 840.265 340.921C839.27 349.729 836.142 357.42 830.927 363.92Z" fill="url(#paint22_linear_727_720)"/>
</mask>
<g mask="url(#mask11_727_720)">
<path d="M543.623 256.962C541.302 259.855 540.183 263.18 540.282 266.923C540.531 276.31 548.74 293.141 586.436 320.015C611.705 338.028 644.458 356.146 674.049 368.48C709.019 383.056 731.759 392.06 752.636 394.189C774.233 396.391 793.154 391.167 817.943 376.159C831.608 367.889 839.393 356.082 841.09 341.072C844.754 308.615 819.016 271.46 812.45 264.001C800.182 250.071 782.321 239.843 759.361 233.601C739.599 228.229 716.013 225.776 689.261 226.311C640.904 227.277 590.406 238.01 559.27 247.732C551.942 250.019 546.715 253.108 543.623 256.962ZM830.928 363.92C827.393 368.326 822.899 372.185 817.461 375.477C792.831 390.387 774.056 395.58 752.656 393.398C731.901 391.282 709.218 382.299 674.325 367.754C620.374 345.267 541.892 296.437 541.111 266.968C540.89 258.604 547.105 252.385 559.587 248.488C590.669 238.783 641.08 228.069 689.349 227.105C716.018 226.571 739.518 229.013 759.198 234.364C781.979 240.557 799.688 250.69 811.834 264.482C818.352 271.884 843.898 308.75 840.266 340.921C839.271 349.729 836.143 357.42 830.928 363.92Z" fill="url(#paint23_linear_727_720)"/>
</g>
<defs>
<linearGradient id="paint0_linear_727_720" x1="835.605" y1="644.671" x2="646.642" y2="-337.684" gradientUnits="userSpaceOnUse">
<stop stop-color="white"/>
<stop offset="0.0436" stop-color="#B4B4B4"/>
<stop offset="0.1507"/>
<stop offset="0.1714" stop-color="#171717"/>
<stop offset="0.3859" stop-color="white"/>
<stop offset="0.6326" stop-color="#E6E6E6"/>
<stop offset="0.8567" stop-color="#1A1A1A"/>
<stop offset="0.9987"/>
</linearGradient>
<linearGradient id="paint1_linear_727_720" x1="835.604" y1="644.67" x2="646.641" y2="-337.682" gradientUnits="userSpaceOnUse">
<stop stop-color="#CC6028"/>
<stop offset="1" stop-color="#CC6028" stop-opacity="0"/>
</linearGradient>
<linearGradient id="paint2_linear_727_720" x1="826.61" y1="621.05" x2="652.177" y2="-285.769" gradientUnits="userSpaceOnUse">
<stop stop-color="white"/>
<stop offset="0.0436" stop-color="#B4B4B4"/>
<stop offset="0.1507"/>
<stop offset="0.1714" stop-color="#171717"/>
<stop offset="0.3859" stop-color="white"/>
<stop offset="0.6326" stop-color="#E6E6E6"/>
<stop offset="0.8567" stop-color="#1A1A1A"/>
<stop offset="0.9987"/>
</linearGradient>
<linearGradient id="paint3_linear_727_720" x1="826.611" y1="621.046" x2="652.178" y2="-285.768" gradientUnits="userSpaceOnUse">
<stop stop-color="#CC6028"/>
<stop offset="1" stop-color="#CC6028" stop-opacity="0"/>
</linearGradient>
<linearGradient id="paint4_linear_727_720" x1="817.679" y1="597.709" x2="657.719" y2="-233.872" gradientUnits="userSpaceOnUse">
<stop stop-color="white"/>
<stop offset="0.0436" stop-color="#B4B4B4"/>
<stop offset="0.1507"/>
<stop offset="0.1714" stop-color="#171717"/>
<stop offset="0.3859" stop-color="white"/>
<stop offset="0.6326" stop-color="#E6E6E6"/>
<stop offset="0.8567" stop-color="#1A1A1A"/>
<stop offset="0.9987"/>
</linearGradient>
<linearGradient id="paint5_linear_727_720" x1="817.678" y1="597.707" x2="657.719" y2="-233.872" gradientUnits="userSpaceOnUse">
<stop stop-color="#CC6028"/>
<stop offset="1" stop-color="#CC6028" stop-opacity="0"/>
</linearGradient>
<linearGradient id="paint6_linear_727_720" x1="808.72" y1="574.375" x2="663.231" y2="-181.986" gradientUnits="userSpaceOnUse">
<stop stop-color="white"/>
<stop offset="0.0436" stop-color="#B4B4B4"/>
<stop offset="0.1507"/>
<stop offset="0.1714" stop-color="#171717"/>
<stop offset="0.3859" stop-color="white"/>
<stop offset="0.6326" stop-color="#E6E6E6"/>
<stop offset="0.8567" stop-color="#1A1A1A"/>
<stop offset="0.9987"/>
</linearGradient>
<linearGradient id="paint7_linear_727_720" x1="808.721" y1="574.374" x2="663.232" y2="-181.984" gradientUnits="userSpaceOnUse">
<stop stop-color="#CC6028"/>
<stop offset="1" stop-color="#CC6028" stop-opacity="0"/>
</linearGradient>
<linearGradient id="paint8_linear_727_720" x1="799.809" y1="551.331" x2="668.731" y2="-130.122" gradientUnits="userSpaceOnUse">
<stop stop-color="white"/>
<stop offset="0.0436" stop-color="#B4B4B4"/>
<stop offset="0.1507"/>
<stop offset="0.1714" stop-color="#171717"/>
<stop offset="0.3859" stop-color="white"/>
<stop offset="0.6326" stop-color="#E6E6E6"/>
<stop offset="0.8567" stop-color="#1A1A1A"/>
<stop offset="0.9987"/>
</linearGradient>
<linearGradient id="paint9_linear_727_720" x1="799.81" y1="551.33" x2="668.731" y2="-130.12" gradientUnits="userSpaceOnUse">
<stop stop-color="#CC6028"/>
<stop offset="1" stop-color="#CC6028" stop-opacity="0"/>
</linearGradient>
<linearGradient id="paint10_linear_727_720" x1="790.882" y1="528.425" x2="674.183" y2="-78.2776" gradientUnits="userSpaceOnUse">
<stop stop-color="white"/>
<stop offset="0.0436" stop-color="#B4B4B4"/>
<stop offset="0.1507"/>
<stop offset="0.1714" stop-color="#171717"/>
<stop offset="0.3859" stop-color="white"/>
<stop offset="0.6326" stop-color="#E6E6E6"/>
<stop offset="0.8567" stop-color="#1A1A1A"/>
<stop offset="0.9987"/>
</linearGradient>
<linearGradient id="paint11_linear_727_720" x1="790.881" y1="528.425" x2="674.182" y2="-78.2758" gradientUnits="userSpaceOnUse">
<stop stop-color="#CC6028"/>
<stop offset="1" stop-color="#CC6028" stop-opacity="0"/>
</linearGradient>
<linearGradient id="paint12_linear_727_720" x1="781.968" y1="505.86" x2="679.575" y2="-26.4833" gradientUnits="userSpaceOnUse">
<stop stop-color="white"/>
<stop offset="0.0436" stop-color="#B4B4B4"/>
<stop offset="0.1507"/>
<stop offset="0.1714" stop-color="#171717"/>
<stop offset="0.3859" stop-color="white"/>
<stop offset="0.6326" stop-color="#E6E6E6"/>
<stop offset="0.8567" stop-color="#1A1A1A"/>
<stop offset="0.9987"/>
</linearGradient>
<linearGradient id="paint13_linear_727_720" x1="781.97" y1="505.86" x2="679.576" y2="-26.4823" gradientUnits="userSpaceOnUse">
<stop stop-color="#CC6028"/>
<stop offset="1" stop-color="#CC6028" stop-opacity="0"/>
</linearGradient>
<linearGradient id="paint14_linear_727_720" x1="773.025" y1="483.687" x2="684.851" y2="25.2573" gradientUnits="userSpaceOnUse">
<stop stop-color="white"/>
<stop offset="0.0436" stop-color="#B4B4B4"/>
<stop offset="0.1507"/>
<stop offset="0.1714" stop-color="#171717"/>
<stop offset="0.3859" stop-color="white"/>
<stop offset="0.6326" stop-color="#E6E6E6"/>
<stop offset="0.8567" stop-color="#1A1A1A"/>
<stop offset="0.9987"/>
</linearGradient>
<linearGradient id="paint15_linear_727_720" x1="773.025" y1="483.687" x2="684.851" y2="25.2579" gradientUnits="userSpaceOnUse">
<stop stop-color="#CC6028"/>
<stop offset="1" stop-color="#CC6028" stop-opacity="0"/>
</linearGradient>
<linearGradient id="paint16_linear_727_720" x1="763.933" y1="461.865" x2="689.885" y2="76.8611" gradientUnits="userSpaceOnUse">
<stop stop-color="white"/>
<stop offset="0.0436" stop-color="#B4B4B4"/>
<stop offset="0.1507"/>
<stop offset="0.1714" stop-color="#171717"/>
<stop offset="0.3859" stop-color="white"/>
<stop offset="0.6326" stop-color="#E6E6E6"/>
<stop offset="0.8567" stop-color="#1A1A1A"/>
<stop offset="0.9987"/>
</linearGradient>
<linearGradient id="paint17_linear_727_720" x1="763.934" y1="461.866" x2="689.886" y2="76.8648" gradientUnits="userSpaceOnUse">
<stop stop-color="#CC6028"/>
<stop offset="1" stop-color="#CC6028" stop-opacity="0"/>
</linearGradient>
<linearGradient id="paint18_linear_727_720" x1="754.461" y1="440.789" x2="694.344" y2="128.2" gradientUnits="userSpaceOnUse">
<stop stop-color="white"/>
<stop offset="0.0436" stop-color="#B4B4B4"/>
<stop offset="0.1507"/>
<stop offset="0.1714" stop-color="#171717"/>
<stop offset="0.3859" stop-color="white"/>
<stop offset="0.6326" stop-color="#E6E6E6"/>
<stop offset="0.8567" stop-color="#1A1A1A"/>
<stop offset="0.9987"/>
</linearGradient>
<linearGradient id="paint19_linear_727_720" x1="754.46" y1="440.787" x2="694.344" y2="128.2" gradientUnits="userSpaceOnUse">
<stop stop-color="#CC6028"/>
<stop offset="1" stop-color="#CC6028" stop-opacity="0"/>
</linearGradient>
<linearGradient id="paint20_linear_727_720" x1="739.283" y1="421.561" x2="692.714" y2="179.427" gradientUnits="userSpaceOnUse">
<stop stop-color="white"/>
<stop offset="0.0436" stop-color="#B4B4B4"/>
<stop offset="0.1507"/>
<stop offset="0.1714" stop-color="#171717"/>
<stop offset="0.3859" stop-color="white"/>
<stop offset="0.6326" stop-color="#E6E6E6"/>
<stop offset="0.8567" stop-color="#1A1A1A"/>
<stop offset="0.9987"/>
</linearGradient>
<linearGradient id="paint21_linear_727_720" x1="739.283" y1="421.56" x2="692.715" y2="179.427" gradientUnits="userSpaceOnUse">
<stop stop-color="#CC6028"/>
<stop offset="1" stop-color="#CC6028" stop-opacity="0"/>
</linearGradient>
<linearGradient id="paint22_linear_727_720" x1="722.127" y1="403.826" x2="686.853" y2="220.407" gradientUnits="userSpaceOnUse">
<stop stop-color="white"/>
<stop offset="0.0436" stop-color="#B4B4B4"/>
<stop offset="0.1507"/>
<stop offset="0.1714" stop-color="#171717"/>
<stop offset="0.3859" stop-color="white"/>
<stop offset="0.6326" stop-color="#E6E6E6"/>
<stop offset="0.8567" stop-color="#1A1A1A"/>
<stop offset="0.9987"/>
</linearGradient>
<linearGradient id="paint23_linear_727_720" x1="722.127" y1="403.826" x2="686.854" y2="220.408" gradientUnits="userSpaceOnUse">
<stop stop-color="#CC6028"/>
<stop offset="1" stop-color="#CC6028" stop-opacity="0"/>
</linearGradient>
</defs>
</svg>
